<?xml version="1.0" encoding="UTF-8"?>
<svg width="3e3" height="2250" version="1.1" viewBox="0 0 793.75 595.31" xmlns="http://www.w3.org/2000/svg" xmlns:cc="http://creativecommons.org/ns#" xmlns:dc="http://purl.org/dc/elements/1.1/" xmlns:rdf="http://www.w3.org/1999/02/22-rdf-syntax-ns#" xmlns:xlink="http://www.w3.org/1999/xlink">
 <defs>
  <linearGradient id="linearGradient1119" x1="23.996" x2="22.538" y1="345.04" y2="397.96" gradientUnits="userSpaceOnUse">
   <stop stop-color="#ffffff" offset="0"/>
   <stop stop-color="#c87137" offset="1"/>
  </linearGradient>
 </defs>
 <metadata>
  <rdf:RDF>
   <cc:Work rdf:about="">
    <dc:format>image/svg+xml</dc:format>
    <dc:type rdf:resource="http://purl.org/dc/dcmitype/StillImage"/>
    <dc:title/>
   </cc:Work>
  </rdf:RDF>
 </metadata>
 <g transform="translate(0 298.31)">
  <rect transform="rotate(90)" x="-298.31" y="-793.75" width="595.31" height="793.75" fill="#decd87"/>
  <path d="m449.38-196.98-72.593 63.326c-1.5556 12.372-9.7269 10.593-18.058 8.4724-0.17243 3.5736-41.321-5.9304-80.472 18.903-11.302-15.23-69.374 403.27-81.974 403.27h-48.96s75.52-332.8 94.751-425.11c6.1749-29.639 21.059-170.2 21.059-170.2h35.721s-21.484 170.56-11.07 165.42c36.137-9.4716 70.231-4.5774 70.231-4.5774l9.8523-2.2237c13.087-3.086 49.341-40.03 76.679-63.945l32.085-31.531 0.41998 8.7506-20.828 20.574c-7.083 2.578 22.479 6.7522 32.839-2.3347l2.5224 4.0087c-13.898 6.7016-28.829 3.5199-42.204 7.1905z" color="#000000" color-rendering="auto" dominant-baseline="auto" fill="#5d6c53" image-rendering="auto" shape-rendering="auto" solid-color="#000000" style="font-feature-settings:normal;font-variant-alternates:normal;font-variant-caps:normal;font-variant-ligatures:normal;font-variant-numeric:normal;font-variant-position:normal;isolation:auto;mix-blend-mode:normal;shape-padding:0;text-decoration-color:#000000;text-decoration-line:none;text-decoration-style:solid;text-indent:0;text-orientation:mixed;text-transform:none;white-space:normal"/>
  <g transform="translate(-6.4145 -27.261)">
   <g transform="translate(38.487 606.17)">
    <path d="m114.38-657.62-2.1608 2.7606c10.679 9.8729 21.558 19.774 31.135 29.493 7.2369 7.3442 13.73 14.585 18.832 21.631 0.0913 9.2397 7.7476 30.284 15.679 51.758-7.5508 1.3684-15.807-4.1447-23.777-6.8577l0.13349 4.7256 26.684 7.9002 9.0822 9.5134c17.612 15.763 33.328 25.464 48.395 33.095 11.834 4.952 14.274 10.419 15.542 21.659 1.772 15.811 2.1999 29.58 1.2411 41.66l-22.7-14.57-3.0109 2.5181 24.731 19.827c-0.99582 8.2377-2.144 16.201-3.3401 20.868-6.8258 17.459 14.939 7.3899 10.672 2.3246 1.5922-6.2133 1.8465-16.16 2.8804-27.743 1.211-17.648-1.7759-39.857-3.2148-51.682-0.99359-8.1656 1.523-6.9526-4.6439-13.939-1.5337-1.7374-2.7806-9.9584-3.4017-12.945-0.94689-4.5527-0.12828-9.5047-0.83379-13.979l-5.7621 1.748c2.1347 7.6093 3.808 13.361 5.1472 20.609-22.973-8.9334-41.833-22.15-58.361-37.796-7.4795-10.026-7.2224-10.818-9.3528-14.46l-2.145-5.4915c-5.1859-12.149-19.363-34.833-11.75-52.742l7.4342-9.8076-3.685-0.0458-7.9803 12.74c-2.5479-6.388-1.6468-8.5253-10.022-18.727l-0.7514 2.5815c4.8212 7.3988 8.6862 16.337 5.9936 18.763-19.905-16.839-34.359-35.144-46.69-45.391z" color="#000000" color-rendering="auto" dominant-baseline="auto" fill="#7c916f" image-rendering="auto" shape-rendering="auto" solid-color="#000000" style="font-feature-settings:normal;font-variant-alternates:normal;font-variant-caps:normal;font-variant-ligatures:normal;font-variant-numeric:normal;font-variant-position:normal;isolation:auto;mix-blend-mode:normal;shape-padding:0;text-decoration-color:#000000;text-decoration-line:none;text-decoration-style:solid;text-indent:0;text-orientation:mixed;text-transform:none;white-space:normal"/>
    <g fill="#217821">
     <path d="m-7.3543-671.25c16.05-16.092 36.983-17.536 55.475-26.299 32.13-11.592 51.372-6.1576 67.312 11.88 5.192 3.0095 10.285 17.633 11.452 36.965 0.16502 2.7336 3.5612 4.6239 3.8628 7.5642-3.271-0.10285-5.318-2.6096-12.036-0.26553-16.727 5.8367-46.488 16.737-62.78 2.3546-34.634-30.575-50.185-35.086-63.286-32.199z"/>
     <path d="m222.38-750.21s-32.927 10.517-46.108 21.096c-22.717 18.232-29.548 43.407-22.317 66.366 6.8435 13.353 18.846 26.402 19.503 40.119 0 0 0.39574-2.714 5.2206-5.3455 15.745-8.5871 51.448-30.946 45.664-78.463-2.2179-18.22-9.0245-26.509-1.9631-43.772z"/>
     <path d="m28.506-579.54c11.264-9.3894 25.009-15.887 36.885-21.514 7.0103-3.3216 14.57-3.267 23.203 3.3761 1.6533-11.895 50.606-13.159 65.866 18.85 5.9439 12.467 12.37 27.387 12.37 27.387-4.7862 1.4242-9.1501 2.8148-13.143 4.1244-29.355 9.6277-38.649 14.873-48.257-3.1161 0.6516 1.7204-37.076 8.0804-54.095-22.871-5.7552-8.3167-17.622-7.2107-22.829-6.2369z"/>
     <path d="m333.87-613.16c-21.675-9.2606-46.781-29.62-74.954-9.5234-26.508 21.538-22.367 59.472-22.367 59.472-8.6811 11.374 4.2755 24.887 10.461 36.41 1.4117 2.63 2.8874 7.4066 3.1996 9.4765l4.8866-7.8838 32.978-26.418s17.943-4.2247 19.064-17.251c0.38922-4.5228-0.6889-10.97-4.1056-20.433-6.4975-17.996 8.642-28.782 30.838-23.848z"/>
     <path d="m101.75-475.9c11.264-9.3894 25.009-15.887 36.885-21.514 7.0103-3.3216 14.57-3.267 23.203 3.3761 1.6533-11.895 50.606-13.159 65.866 18.85 3.3528 7.0327 7.3157 17.624 10.364 23.874 2.3553 4.8296 4.2705 6.3048 4.2705 6.3048-1.075 0.31989-4.3931-2.1536-5.426-1.8376-3.5662 1.0908-6.8853 2.1549-9.9813 3.1703-29.355 9.6277-38.649 14.873-48.257-3.1161 0.65159 1.7203-37.076 8.0804-54.095-22.871-5.7552-8.3167-17.622-7.2107-22.829-6.2369z"/>
    </g>
    <g fill="#88aa00" shape-rendering="auto">
     <path d="m62.982-697.79c16.778-0.15075 21.375 5.0222 32.219 15.756 6.7427 6.6744 9.6638 16.291 15.312 22.566-4.1012-2.5569-8.4045-4.9229-12.906-7.1152l-0.5332-0.75391c-5.3171-7.5388-10.266-14.501-18.453-19.121-8.1869-4.6206-19.526-6.8384-37.494-5.1289 12.445 0.9371 26.419 0.83335 36.715 6.5117 7.2418 4.0872 11.868 10.23 16.729 17.074-5.8267-2.6668-11.891-5.0588-18.334-6.957-1.0802-1.3494-2.5449-2.3821-3.5996-3.0156-2.351-1.4312-5.8492-3.2379-10.285-4.916-14.776-3.9693-23.177-5.5812-35.898-2.8477 14.283-1.7401 26.655 1.0491 35.338 4.334 3.8054 1.5436 7.8452 3.3216 11.039 5.4824-15.956-4.4693-44.849-7.9636-66.408-8e-3 24.218-4.9216 46.08-3.6562 65.387 1.3965-5.4853 1.3596-11.726 2.5095-16.633 3.168-11.03 1.4551-23.864 1.6836-30.545-2.4277 9.3637 6.6618 21.627 4.4526 30.752 4.002 5.5779-0.73585 10.692-1.7515 14.395-2.5996 1.8515-0.42407 3.3492-0.8055 4.3809-1.0918 4.8566-0.0899 15.282 4.8862 19.396 6.7461-9.0091 2.9977-14.797 6.3701-21.793 7.7793-7.6974 1.5504-17.243 0.80347-35.209-5.5156 10.835 5.7821 25.566 9.023 35.521 7.0723 7.7574-1.5625 13.71-5.2965 23.553-8.3672 5.5144 2.6176 10.784 5.4706 15.701 8.6309-14.957 6.0985-41.204 11.301-63.947 0.69336 18.734 13.074 46.979 8.1714 65.666 0.33789 3.6791 2.4377 7.1565 5.0143 10.479 7.6777-8.8198 0.86606-14.799 3.7135-22.592 5.8262-8.1846 2.2189-18.56 3.633-36.971 1.0449 11.945 5.102 27.266 3.2469 37.385 0.48828 8.3495-2.2636 13.065-4.486 22.358-5.1513l4.0276 5.955c2.0745 2.5378 3.9493 4.3104 3.9192-1.2193-0.0267-0.24451-6.1258-6.9397-6.1581-7.1879l0.13672-0.16796c-6.8693-28.28-21.749-40.824-38.207-48.301 21.444 11.734 33.481 32.215 36.137 46.766-3.778-2.608-6.5887-5.1648-9.3711-7.4297-6.806-5.8284-9.9112-15.662-16.65-24.647-14.146-13.236-19.221-17.04-34.557-15.339z" color="#000000" color-rendering="auto" dominant-baseline="auto" image-rendering="auto" solid-color="#000000" style="font-feature-settings:normal;font-variant-alternates:normal;font-variant-caps:normal;font-variant-ligatures:normal;font-variant-numeric:normal;font-variant-position:normal;isolation:auto;mix-blend-mode:normal;shape-padding:0;text-decoration-color:#000000;text-decoration-line:none;text-decoration-style:solid;text-indent:0;text-orientation:mixed;text-transform:none;white-space:normal"/>
     <path d="m100.58-603.44c16.798-0.13225 25.529 7.6119 32.014 17.018 5.7738 8.3742 9.7151 17.905 15.623 24.338-4.1458-2.024-8.3559-3.9993-12.656-5.8926l-0.65039-0.90429c-5.3115-7.4019-8.2689-13.387-14.145-18.053-12.581-6.9488-19.199-8.5783-31.311-8.3066 16.433 1.9928 24.767 5.1379 30.324 9.5508 5.2399 4.1606 8.2351 9.6957 13.059 16.588-8.8964-3.8092-18.133-7.1774-27.762-9.8262 0.0329-0.1614 0.0299-0.30117 8e-3 -0.39648-0.61285-1.3274-2.1326-2.321-3.2285-3.1191-2.1499-1.5561-5.3793-3.525-9.5488-5.3652-14.004-3.9653-23.041-7.8442-34.852-3.4902 14.274-1.7391 26.083 1.3562 34.211 4.9434 3.9897 2.0407 8.1525 3.8667 11.346 6.9004-0.01 3e-3 -0.0172 7e-3 -0.0273 0.01-8.0234-0.52035-27.302-10.582-59.672-3.5969 20.039-3.0251 39.144 0.21121 56.428 4.4251-5.2515 1.2373-11.127 2.3246-15.738 2.9434-11.03 1.4551-23.864 3.2891-30.545-0.82216 7.6055 7.0993 23.882 2.8981 30.752 2.3961 5.5779-0.73586 10.692-1.7515 14.395-2.5996 1.8515-0.42407 3.3492-0.8055 4.3809-1.0918 0.0185-5e-3 0.0248-7e-3 0.043-0.0117 9.6422 2.5542 18.906 5.8352 27.832 9.6016-19.738 6.1209-35.864 12.775-69.898 0.80468 28.279 14.681 53.649 5.9571 72.199 0.14649 5.1274 2.2178 10.171 4.5252 15.09 6.9375-12.492 3.4752-20.69 9.0739-44.592 4.707 16.159 8.576 34.957-0.56641 46.693-3.6836 3.5238 1.7499 6.9861 3.5263 10.412 5.3047-8.5917 1.0221-14.063 4.6478-20.311 7.25-6.6607 2.7745-14.418 4.4185-28.836 0.53711 7.2402 5.8256 22.618 3.7447 29.445 0.92774 6.8674-2.8606 12.203-6.7388 21.443-7.4004l0.84375-0.0605-0.11328-0.83789c-0.0388-0.28663-0.15224-0.61108-0.19922-0.90235l0.0566-0.10742c-0.0293-0.0153-0.0606-0.0297-0.0898-0.0449-1.2673-7.6547-5.2445-16.802-11.068-25.152-7.2349-7.6231-13.824-18.503-23.652-19.111 8.5211 3.86 16.387 11.47 22.35 20.02 5.4102 7.7575 9.1228 16.217 10.543 23.312-2.8756-1.4914-5.7914-2.9775-8.7402-4.4531l-1.0215-0.875c-6.7822-5.808-10.876-16.814-17.514-26.441-7.9659-11.847-22.497-18.531-33.32-16.115z" color="#000000" color-rendering="auto" dominant-baseline="auto" image-rendering="auto" solid-color="#000000" style="font-feature-settings:normal;font-variant-alternates:normal;font-variant-caps:normal;font-variant-ligatures:normal;font-variant-numeric:normal;font-variant-position:normal;isolation:auto;mix-blend-mode:normal;shape-padding:0;text-decoration-color:#000000;text-decoration-line:none;text-decoration-style:solid;text-indent:0;text-orientation:mixed;text-transform:none;white-space:normal"/>
     <path d="m182.93-697.09c-0.0686-0.50865-0.15323-0.86684-0.19336-1.5352-0.15391-2.5628-0.0315-6.2116 0.83984-10.4 1.7426-8.3776 6.4552-18.906 17.957-27.463-9.9018 6.523-17.397 17.301-19.512 27.139-0.90263 4.3393-1.0334 8.1179-0.87109 10.82 0.0812 1.3512 0.2345 2.4308 0.41016 3.2012 0.0878 0.38519 0.17683 0.68824 0.29297 0.94922 0.0579 0.13002 0.11482 0.24842 0.24023 0.39258-0.5591 2.1406-1.1139 4.2845-1.5762 6.4473-1.2537 5.8657-2.1613 11.787-2.8809 17.66-1.8193-8.0424-4.6469-17.087-5.0234-26.434-0.46595-11.566 2.7931-23.455 16.734-34.41-12.766 6.9086-18.678 23.337-18.32 34.473 0.47248 11.728 4.6797 22.845 6.0781 31.748-0.6018 5.7977-1.1154 11.424-1.5117 16.92-2.9705-9.2261-8.4264-19.569-11.783-30.438-3.953-12.799-4.8278-26.047 5.2559-38.777-11.253 9.1653-9.709 29.476-6.7734 39.246 3.9226 12.7 10.679 24.605 12.979 34.365-0.28235 3.9617-0.63613 7.7068-0.95898 11.359-2.3864-5.2955-6.0929-12.156-9.957-20.492-4.6685-10.071-8.9656-21.527-9.4414-32.158-1.6052 11.154 4.3203 24.855 8 32.826 4.4815 9.6679 9.1046 17.852 11.105 22.936-0.16781 1.6873-2.0218 3.2876-2.2216 4.8831-1.5215 3.1812 0.0789 6.0889 3.3134 0.46454 0.64387-1.1196 0.23363-2.6083 0.36523-3.8574l0.24024-0.19922c7.234-5.9631 11.849-7.7587 17.668-11.793 10.419-9.7241 18.999-15.612 23.09-25.898-11.57 14.598-18.321 20.659-23.996 24.594-5.4034 3.7464-10.015 5.7205-16.799 11.135 0.38644-4.0047 0.77853-8.1274 1.0938-12.512 7.7716-2.8688 16.932-10.488 25.453-20.49 8.6535-12.184 17.915-22.612 19.9-35.621-4.7996 12.251-12.621 24.629-21.109 34.592-8.1651 9.5835-16.94 16.811-24.109 19.695 0.45759-6.4097 1.0172-13.054 1.7109-19.896 9.7582-5.0238 15.396-10.061 20.611-17.984 7.846-15.717 13.824-22.296 17.438-36.654-8.6905 17.039-13.611 27.953-18.764 35.781-4.92 7.475-10.126 12.166-19.096 16.922 0.77337-7.1979 1.7234-14.455 3.2617-21.652 0.48671-2.2772 1.061-4.5308 1.6543-6.7774 0.12811-0.0651 0.22597-0.10776 0.38867-0.19726 0.6417-0.35301 1.5563-0.90116 2.6914-1.6562 2.2702-1.5102 5.4159-3.8444 8.9336-7.0508 3.6849-3.6014 18.573-17.379 20.008-30.713-5.7995 13.514-14.171 23.247-21.076 29.541-3.2846 2.8816-6.8194 5.7865-10.371 7.9023 5.3856-19.066 16.154-38.079 34.846-49.808-19.344 7.7136-31.802 33.832-36.216 48.876z" color="#000000" color-rendering="auto" dominant-baseline="auto" image-rendering="auto" solid-color="#000000" style="font-feature-settings:normal;font-variant-alternates:normal;font-variant-caps:normal;font-variant-ligatures:normal;font-variant-numeric:normal;font-variant-position:normal;isolation:auto;mix-blend-mode:normal;shape-padding:0;text-decoration-color:#000000;text-decoration-line:none;text-decoration-style:solid;text-indent:0;text-orientation:mixed;text-transform:none;white-space:normal"/>
     <path d="m174.53-498.54c15.492 1.7002 25.854 10.467 33.012 19.697 3.5789 4.6152 6.3431 9.3402 8.5176 13.332 1.6011 2.9392 2.6293 4.7888 3.707 6.627-4.5294-2.2712-9.1395-4.4056-13.834-6.4375l-0.1875-0.26172c-5.3115-7.4019-8.2669-13.385-14.143-18.051-12.16-5.7854-15.903-8.123-31.312-8.3066 16.433 1.9928 24.767 5.1359 30.324 9.5488 5.0448 4.0057 8.066 9.3551 12.576 15.885-8.8424-3.7006-17.946-6.8287-27.275-9.3008-2e-3 -0.0719 0.016-0.16639 4e-3 -0.21875-0.61531-1.3246-2.1311-2.321-3.2266-3.1191-2.1499-1.5561-5.3813-3.5231-9.5508-5.3633-15.105-5.1652-21.241-6.5507-34.85-3.4902 14.274-1.739 26.081 1.3542 34.209 4.9414 3.8887 1.9187 7.9275 3.8439 11.029 6.6445-13.792-2.6925-33.401-9.3994-60.179-3.064 19.231-3.0425 39.516-0.23735 57.624 4.0582-5.349 1.2908-11.399 2.4088-16.139 3.0449-11.03 1.4551-23.864 1.6836-30.545-2.4277 9.7301 6.6902 21.864 5.1673 30.752 4.002 5.5779-0.73586 10.692-1.7515 14.395-2.5996 1.8515-0.42407 3.3492-0.80745 4.3809-1.0938 8.7734 1.3112 21.395 6.3986 28.578 9.375-20.069 6.1792-36.157 13.136-70.602 1.0215 30.891 14.373 54.91 6.1251 72.846-0.0527 5.1448 2.2085 10.19 4.5536 15.141 7.0527-13.267 4.8829-20.71 9.1406-45.486 6.6523 17.816 5.7785 35.522-1.3288 47.408-5.6797 3.4474 1.7713 6.8472 3.5648 10.189 5.4355-11.132 2.0512-14.782 3.9451-18.773 5.4258-4.1601 1.5433-9.057 2.7268-24.494 3.4082 7.8549 1.5497 19.106 0.28217 25.047-1.9199 4.2972-1.5941 7.5644-3.4731 19.748-5.6055l0.5839-0.10355c2.574 1.4642 5.1972 2.8949 7.7031 4.3984l0.81641-1.3613c-2.8135-1.6881-5.7534-3.3024-8.6543-4.9414-4.4551-21.123-15.896-36.548-36.318-46.104 21.599 11.819 32.129 30.659 34.525 45.08-3.2104-1.789-7.0166-4.4343-10.326-6.1327-1.1088-1.5449-2.1438-3.771-4.2975-7.7247-2.193-4.0259-4.9985-8.83-8.6562-13.547-12.834-13.03-18.685-19.045-34.268-18.725z" color="#000000" color-rendering="auto" dominant-baseline="auto" image-rendering="auto" solid-color="#000000" style="font-feature-settings:normal;font-variant-alternates:normal;font-variant-caps:normal;font-variant-ligatures:normal;font-variant-numeric:normal;font-variant-position:normal;isolation:auto;mix-blend-mode:normal;shape-padding:0;text-decoration-color:#000000;text-decoration-line:none;text-decoration-style:solid;text-indent:0;text-orientation:mixed;text-transform:none;white-space:normal"/>
     <path d="m268.72-621.24c-4.625 4.3347-7.037 9.9405-8.1738 15.436s-1.0098 10.894-0.53906 14.924c0.60144 2.4033 0.49625 4.8264 1.5234 6.748 0.0104 0.0162 0.0356 0.038 0.0469 0.0547-0.32297 5.0508-2.7866 9.7841-3.9846 14.217-0.38388 1.4866-0.63786 3.0096-0.98437 4.5117-1.7809-8.7235-6.4804-17.633-7.9336-26.822-1.5627-9.8817 0.54456-20.034 14.5-31-12.451 4.8304-17.527 21.48-16.068 31.248 1.6258 10.281 7.0867 19.889 8.4023 28.785 0.065 5.6148-1.6516 11.382-2.4785 16.744-1.2463-3.7821-3.3146-8.3605-5.3633-13.73-2.8853-7.5629-5.6676-16.533-5.8516-26.301-2.1562 8.808 1.835 20.208 4.3672 26.865 2.8272 7.4106 5.6115 13.374 6.2129 17.18-0.59026 4.252-0.94926 7.5978-1.4024 11.5-1.962-3.5121-4.5761-6.0278-6.9062-9.2676-2.9608-4.1167-5.5661-9.525-6.0449-20.225-1.5806 6.1043 1.7232 16.86 4.7559 21.152 2.9409 4.089 6.008 6.792 7.8418 11.293-0.40433 3.5556-0.92092 7.7121-1.2852 10.742l1.5762 0.18945c0.33555-2.7914 0.81327-6.6238 1.1797-9.8535l0.0957-0.0801c13.312-10.981 29.18-21.067 35.619-29.199-17.305 13.853-22.79 17.801-25.766 19.795-2.7253 1.8266-3.9614 2.5452-9.6797 7.2383 0.47602-4.1475 0.85133-7.7754 1.4766-12.34l0.10937-0.15625c9.0158-12.949 16.67-18.51 36.203-25.037 8.5717-4.0731 11.575-11.547 10.623-19.102-0.11667 2.1126-1.0166 5.9755-2.8476 9.5391-1.831 3.5636-4.5679 6.8165-8.2793 8.0566-18.461 6.1687-26.796 11.998-35.305 23.508 0.88102-6.0592 2.0125-12.239 3.3711-18.42 9.1357-4.6716 15.438-6.4565 21.346-10.281 10.625-9.4905 14.869-14.145 18.914-25.502-7.8207 13.741-11.427 17.633-19.775 24.17-5.0525 3.9561-11.529 5.4262-20.061 9.666 0.34308-1.4875 0.59483-3 0.97461-4.4707 1.2331-4.7752 2.6783-9.4235 4.3613-13.836 3.2354-0.69816 6.4839-2.7002 8.7227-4.0469 6.6119-3.9286 23.195-14.645 31.012-26.213-14.384 13.008-24.997 20.719-31.834 24.855-3.3145 2.0053-5.6663 3.104-7.1562 3.6172 4.785-11.852 11.424-21.767 20.938-26.957 7.9453-4.335 19.485-7.8616 32.409-6.5559-11.207-4.3404-25.379 0.91714-33.169 5.1633-10.034 5.4748-16.867 15.771-21.734 27.932-0.57284-1.8131-0.90312-3.943-1.0957-5.5586-0.45543-3.8989-0.57257-9.1487 0.51758-14.418 1.0901-5.2692 3.3776-10.544 7.7051-14.6 4.3275-4.0559 10.717-6.9383 20.195-7.3359-8.032-1.2003-16.722 1.9542-21.281 6.1778z" color="#000000" color-rendering="auto" dominant-baseline="auto" image-rendering="auto" solid-color="#000000" style="font-feature-settings:normal;font-variant-alternates:normal;font-variant-caps:normal;font-variant-ligatures:normal;font-variant-numeric:normal;font-variant-position:normal;isolation:auto;mix-blend-mode:normal;shape-padding:0;text-decoration-color:#000000;text-decoration-line:none;text-decoration-style:solid;text-indent:0;text-orientation:mixed;text-transform:none;white-space:normal"/>
    </g>
   </g>
  </g>
  <g transform="matrix(2.1444 0 0 2.1436 -220.35 -484.91)" stroke-width=".46642">
   <g transform="rotate(37.329 -528.37 400)" stroke-width=".46642">
    <path d="m42.132-332.54-1.8283 0.75668c1.0188 3.1793 2.4041 5.1596 3.4072 8.3268 1.4632 4.6201 2.5096 10.401 3.7 14.812 1.5162 5.6186 2.6959 10.98 3.2459 15.859-2.5211 4.566-4.6036 17.034-6.6702 29.789-4.09-1.424-6.6158-6.4259-9.778-9.9719l-1.2468 2.3594 10.917 11.291 1.8204 7.1969c4.2761 12.637 9.3034 21.768 14.587 29.701 4.439 5.7192 4.1201 9.0835 1.6215 14.959-3.5203 8.2621-7.1337 15.147-10.96 20.818l-7.1071-13.463-2.1787 0.40149 6.645 16.611c-2.777 3.7718-5.5527 7.3665-7.4365 9.3281-4.573 3.727-37.783 69.33-37.783 69.33l3.3221 8.1638c-0.019795-0.0027 35.743-72.831 39.059-73.388 2.5078-2.6113 5.3949-7.4287 9.1197-12.834 5.496-8.3365 10.196-20.08 12.773-26.291 1.7795-4.2887 2.6791-2.9939 1.5892-8.1393-0.27106-1.2797 0.97943-5.1889 1.5036-6.8289 0.45185-1.4138 0.43952-3.2386 1.1808-4.5517 0.56963-1.0091 2.3224-1.9861 2.7117-3.0268l-3.3166-0.74086c-1.0643 4.3322-1.8396 7.6236-3.1943 11.557-8.8065-10.769-14.403-22.5-18.179-34.778-0.89064-7.0038-0.54425-7.3219-0.57958-9.7032l0.47112-3.2943c0.82595-7.4104 0.15972-22.494 8.8737-29.182l6.3763-2.7556-1.7978-1.0457-7.4591 4.0453c0.52214-3.8467 1.5584-4.6469 0.27667-11.985l-1.0861 1.06c0.31409 4.9746-0.26926 10.441-2.2659 10.885-5.1039-13.802-7.1221-26.811-10.335-35.27z" color="#000000" color-rendering="auto" dominant-baseline="auto" fill="#7c916f" image-rendering="auto" shape-rendering="auto" solid-color="#000000" style="font-feature-settings:normal;font-variant-alternates:normal;font-variant-caps:normal;font-variant-ligatures:normal;font-variant-numeric:normal;font-variant-position:normal;isolation:auto;mix-blend-mode:normal;shape-padding:0;text-decoration-color:#000000;text-decoration-line:none;text-decoration-style:solid;text-indent:0;text-orientation:mixed;text-transform:none;white-space:normal"/>
    <g fill="#217821">
     <path d="m-13.899-373.03c12.355-3.4519 23.041 1.6508 34.561 2.4787 19.006 3.2244 29.408 16.944 29.773 24.528 0.43254-8e-3 -1.1209 10.041-5.2197 21.456-0.52244 1.4549 0.84566 2.3061 0.1773 3.8348-1.2367-1.1771-0.53192-3.1387-5.2923-3.3356-9.9895-0.41311-27.836-3.9744-31.847-15.566-8.5259-24.642-14.914-31.176-22.153-33.395z"/>
     <path d="m120.91-348.05-28.513-2.435c-19.006 3.2244-26.573 13.128-29.395 26.418-0.34577 8.4622 1.9275 18.208-1.5591 25.131 0 0 1.9616-0.56454 5.063-0.51807 10.121 0.15165 32.859-1.5823 43.213-26.54 3.9703-9.5699 2.9277-15.533 11.191-22.056z"/>
     <path d="m-21.749-318c8.1418-1.4868 16.7-0.8633 24.098-0.33122 4.3669 0.31408 8.0662 2.44 10.463 8.1016 4.1158-5.3867 28.519 7.584 27.128 27.552-0.54193 7.7773-1.5281 16.894-1.5281 16.894-2.7472-0.62901-5.2775-1.1573-7.6029-1.6224-17.097-3.4192-23.12-3.4222-22.845-14.93-0.15761 1.0264-20.461-6.3233-20.227-26.26-0.5181-5.6851-6.6556-8.4363-9.4849-9.4038z"/>
     <path d="m137.63-249.74c-8.0777-10.569-14.76-27.545-34.183-25.492-19.006 3.2244-27.506 23.016-27.506 23.016-7.424 3.1791-4.8106 13.417-4.9717 20.798-0.03678 1.6844-1.1481 4.5952-1.5695 5.699 1.0051-1.467 2.4-2.6106 5.1002-2.6712l23.54-3.8263s9.9891 2.9057 14.158-3.1848c1.4473-2.1146 2.7081-5.5824 3.6574-11.182 1.8052-10.648 12.239-11.745 21.775-3.1573z"/>
     <path d="m-14.541-246.74c8.1418-1.4868 16.7-0.86329 24.098-0.33121 4.3669 0.31407 8.0662 2.44 10.463 8.1016 4.1158-5.3866 28.519 7.584 27.128 27.552-0.3057 4.3871-1.8931 9.812-2.1312 13.73-0.18399 3.0274 0.25741 3.9607 0.25741 3.9607-0.61701-0.14127-1.6452-1.9782-2.2405-2.1098-2.0551-0.45412-3.2136 0.0513-5.0168-0.30928-17.097-3.4192-23.12-3.4222-22.845-14.93-0.15761 1.0264-20.461-6.3233-20.227-26.26-0.5181-5.6851-6.6556-8.4363-9.4849-9.4038z"/>
    </g>
   </g>
   <g fill="#88aa00" shape-rendering="auto">
    <path d="m355.04 103.35c7.6976 11.108 12.217 23.029 13.963 34.684-0.32866-0.42225-0.6556-0.84047-1.1152-1.4707-1.2504-1.7145-2.9027-4.1226-4.5078-6.8242-3.2102-5.4031-7.1646-12.673-6.5105-17.097-0.80234 6.3234 3.3259 13.156 5.8737 17.474 1.6203 2.7271 3.2829 5.1523 4.5449 6.8828 0.60349 0.81008 1.2208 1.6579 1.8398 2.3887 0.51162 3.8888 0.66222 7.7205 0.57227 11.5-3.6312-4.192-6.8632-7.0721-9.3223-11.045-2.6673-4.3092-5.2869-11.151-6.003-21.88-0.18814 7.3252 2.1556 16.988 5.3741 22.271 2.6608 4.2986 6.0928 7.1989 9.9258 11.73-0.13356 3.4558-0.45665 6.8524-1.0703 10.145-6.5888-6.3972-16.131-19.166-15.68-33.445-2.1596 12.183 7.4042 26.519 15.545 34.389-0.49293 2.4537-1.1465 4.8343-1.8965 7.1621-2.3856-4.2764-5.1365-6.7964-7.9375-10.334-2.976-3.7587-6.023-8.8396-8.7754-18.973 0.35329 6.6439 4.6743 14.96 8.1953 19.432 2.9948 3.7824 5.3225 6.1128 7.7251 10.705-0.54642 1.2623-1.8988 2.8086-1.6534 3.8636l0.93126 0.20508c0.35593-1.2363 1.6867-2.011 2.1675-3.4314 10.238-9.5288 17.783-19.505 16.929-31.155 0.55818 10.106-7.6187 21.596-16.437 29.627 0.57316-2.59 1.1927-5.0062 1.7393-6.8488 1.5195-4.8543 5.976-9.3251 9.1328-14.807 3.3824-5.7642 5.1342-12.86 0.37305-20.656 3.8167 8.715 2.0761 14.918-1.0156 20.287-2.7811 4.8292-6.5948 8.9501-8.5215 13.451 0.51516-2.92 0.82846-5.9086 0.97266-8.9531l0.20703-0.33789c2.7291-4.4343 5.2316-8.5367 5.8066-13.791 0.85725-7.1748-1.34-12.793-6.3164-20.189 4.8342 8.8536 6.1343 15.043 5.5801 20.107-0.51954 4.7475-2.727 8.5618-5.2422 12.67 0.0976-3.7142-0.0501-7.48-0.52734-11.299 0.0328-0.0187 0.0811-0.0324 0.10156-0.0508 0.47584-0.73326 0.57251-1.76 0.67383-2.459 0.21914-1.5326 0.37705-3.7448 0.26172-6.4141-0.27249-6.0593-1.8781-13.151-6.3594-19.297 4.086 7.0353 5.3926 14.086 5.6191 19.33 0.1133 2.6223-0.0438 4.7922-0.25585 6.2754-0.0619 0.43316-0.126 0.66806-0.19141 0.97656-0.60029-5.9831-4.7978-24.127-14.717-34.797z" color="#000000" color-rendering="auto" dominant-baseline="auto" image-rendering="auto" solid-color="#000000" style="font-feature-settings:normal;font-variant-alternates:normal;font-variant-caps:normal;font-variant-ligatures:normal;font-variant-numeric:normal;font-variant-position:normal;isolation:auto;mix-blend-mode:normal;shape-padding:0;text-decoration-color:#000000;text-decoration-line:none;text-decoration-style:solid;text-indent:0;text-orientation:mixed;text-transform:none;white-space:normal"/>
    <path d="m314.44 141.17c6.3302 10.459 9.6902 24.108 11.043 33.289-0.3307-0.43746-0.68487-0.90753-1.1641-1.5879-1.2134-1.7228-2.8152-4.1428-4.3711-6.8555-3.1117-5.4253-6.0006-12.056-5.3457-16.484-1.3185 6.2593 2.2728 12.606 4.7031 16.854 1.5704 2.738 3.1835 5.1733 4.4082 6.9121 0.61234 0.8694 1.1282 1.5644 1.4941 2.0371 0.18297 0.23636 0.32812 0.41577 0.43359 0.53906 0.0354 0.0414 0.0612 0.071 0.0899 0.10157 0.76086 5.4326 1.0802 10.828 1.1016 16.16-7.661-8.9661-16.142-19.152-16.426-35.828-1.3545 15.283 9.0085 28.287 16.441 36.977-0.0108 3.2895-0.20557 6.4678-0.375 9.6856-3.0697-2.8108-6.2465-5.5446-8.6758-9.166-2.661-3.9668-4.4454-8.9932-4.2109-16.414-1.2966 5.7439 0.9853 12.872 3.5957 16.828 2.6235 3.9109 6.0502 6.7711 9.2422 9.7148-0.12828 2.281-0.18326 4.6142-0.34961 6.8476-2.3684-4.232-4.8145-5.4884-7.2148-7.7656-2.5286-2.3989-5.136-6.1059-7.8887-16.24 0.0939 5.3717 3.9438 13.484 7.3789 16.777 2.6224 2.4879 5.0347 3.5025 7.4473 8.1777l0.17578 0.3418c0.25512-0.093 0.45955-0.31357 0.66797-0.43945l0.13086 0.01c12.134-8.9837 15.248-18.36 15.604-28.693-1.3477 14.014-8.5413 23.261-15.549 27.625 0.14433-1.9497 0.1885-3.9936 0.30469-5.9824l0.14257 0.13281 0.17579-0.56054c1.5152-4.8404 6.322-9.4098 9.834-14.982 3.9839-6.0462 5.2381-12.78 1.0898-20.857 3.813 8.7065 1.7284 14.996-1.7168 20.463-3.2112 5.0953-7.5517 9.4148-9.4414 14.133 0.15253-2.9149 0.35723-5.7746 0.38281-8.7539l0.0723 0.0859 0.26758-0.44532c2.6626-4.4063 5.1038-7.264 6.2129-11.33 0.84882-5.7238 1.3592-8.1236-2.502-18.092 2.6214 8.9738 2.8463 14.013 1.7871 17.896-1.0191 3.7363-3.2854 6.5351-5.8516 10.705 8e-3 -5.6102-0.3098-11.305-1.1094-17.043 0.01-0.0137 0.0295-0.0269 0.0391-0.041 0.0828-0.12152 0.15498-0.27024 0.23633-0.46485 0.16269-0.38921 0.34632-0.95557 0.52929-1.6875 0.36595-1.4638 0.71904-3.582 0.79688-6.1602 0.46187-4.5193-0.90596-13.299-5.5938-18.945 4.0824 7.0292 5.0058 13.876 4.8535 18.922-0.0762 2.5228-0.42119 4.5949-0.77343 6.0039-0.1113 0.44518-0.20935 0.6959-0.3125 1-0.44636-3.4975-3.7948-23.754-11.811-33.399z" color="#000000" color-rendering="auto" dominant-baseline="auto" image-rendering="auto" solid-color="#000000" style="font-feature-settings:normal;font-variant-alternates:normal;font-variant-caps:normal;font-variant-ligatures:normal;font-variant-numeric:normal;font-variant-position:normal;isolation:auto;mix-blend-mode:normal;shape-padding:0;text-decoration-color:#000000;text-decoration-line:none;text-decoration-style:solid;text-indent:0;text-orientation:mixed;text-transform:none;white-space:normal"/>
    <path d="m400.52 177.39c-3.5853 1.3395-6.7488 3.8802-9.6562 6.7402-2.9075 2.86-5.5613 6.0452-8.0996 8.6973-2.5383 2.6521-4.9654 4.7567-7.3398 5.5-2.1421 0.74786-4.3736 1.5046-6.3262 2.1661 2.256-2.3757 4.9953-5.8794 8.6777-9.9785 4.1902-4.6643 9.1827-9.4475 14.609-12.066-6.3837 2.6082-11.545 7.5583-15.16 11.57-4.0616 4.5212-7.3962 8.475-9.599 10.628-0.78168 0.23205-1.6479 0.29934-2.3638 0.20534-1.2827 0.0551-2.4457-0.56723-2.1764 0.78651 0.73763-0.14726 1.1666 0.41822 1.9485 0.52092 0.45876 0.0602 2.2157 0.0747 2.7425 0.0385 4.093 1.8227 6.4971 4.5241 9.5263 6.5569 2.8866 1.4804 11.748 5.7461 19.387 5.5156-10.895-2.0074-15.706-4.0257-18.984-6.1387-3.1459-2.0277-5.0643-4.217-9.4414-6.5762 2.164-0.72721 4.8122-1.6117 7.209-2.4414 3.2175 3.3365 9.1042 6.421 16.084 8.6562 8.4828 1.9093 15.306 4.223 22.828 2.6816-7.432 0.23477-15.568-1.1342-22.602-3.3867-6.7324-2.156-12.384-5.1421-15.502-8.2266 3.4682-1.1971 6.8242-2.3114 10.629-3.4531 4.7729 3.944 8.6215 5.7396 13.885 6.6816 7.7028 1.0755 14.551 1.6626 22.875 1.0488-10.771-0.71888-17.527-0.84347-22.744-1.7773-5.0072-0.89624-8.6257-2.5693-13.127-6.209 4.6117-1.3572 9.3509-2.6061 14.189-3.3906 0.70564-0.11441 1.4141-0.11675 2.1211-0.21289 0.32164 0.24681 0.74459 0.555 1.3359 0.94141 1.285 0.8397 3.1931 1.9526 5.6348 3.0625 5.0577 1.883 12.846 4.8683 20.35 3.6973-8.3142-3e-3 -15.234-2.1871-20.043-4.373-2.4044-1.093-4.2805-2.186-5.5352-3.0059-0.2768-0.18087-0.40396-0.28442-0.61914-0.43555 11.279-1.3687 22.626-0.34744 32.412 6.457-9.4524-8.0201-23.954-8.2991-33.314-7.1094-0.0151-0.0124-0.0274-0.0218-0.041-0.0332 0.49895-0.40238 1.1427-0.75264 1.6211-0.99414 1.3016-0.65278 3.2272-1.4018 5.6016-1.8828 4.7488-0.96194 11.283-0.85701 18.297 3.2168-5.119-4.4611-12.946-5.0382-18.443-3.9434-2.4446 0.4952-4.4272 1.2652-5.7871 1.9473-0.74939 0.542-1.937 1.4208-1.937 1.4208s-0.33568 0.16456-1.772 0.51675c-4.3811 0.71035-8.6624 1.8058-12.855 2.998 4.0104-2.7954 8.2879-6.5482 13.447-9.0098 5.9127-2.821 12.842-3.7768 21.645 1.0293-6.6174-5.5232-16.055-4.492-21.963-1.6973-6.0155 2.87-10.874 7.5795-15.223 10.281-2.7673 0.82638-5.2121 1.6109-7.8086 2.4883 1.393-1.032 2.7786-2.2878 4.1875-3.7598 2.5647-2.6796 5.212-5.8566 8.084-8.6816 2.872-2.8251 5.9656-5.2924 9.3965-6.5742s7.1952-1.4014 11.523 0.49414c-3.2547-2.5115-8.3514-2.4443-11.783-1.1876z" color="#000000" color-rendering="auto" dominant-baseline="auto" image-rendering="auto" solid-color="#000000" style="font-feature-settings:normal;font-variant-alternates:normal;font-variant-caps:normal;font-variant-ligatures:normal;font-variant-numeric:normal;font-variant-position:normal;isolation:auto;mix-blend-mode:normal;shape-padding:0;text-decoration-color:#000000;text-decoration-line:none;text-decoration-style:solid;text-indent:0;text-orientation:mixed;text-transform:none;white-space:normal"/>
    <path d="m276.59 203.52c6.0937 9.8335 9.285 19.907 10.926 29.92-0.24403-0.32139-0.42048-0.53779-0.71484-0.94141-1.2504-1.7145-2.9007-4.1246-4.5059-6.8262-3.2102-5.4031-6.8203-12.322-6.1662-16.745-2.7702 5.6264 3.2342 13.27 5.5294 17.124 1.6203 2.7271 3.2829 5.1523 4.5449 6.8828 0.63103 0.86526 1.1621 1.5571 1.5391 2.0273 0.0116 0.0145 0.016 0.0191 0.0273 0.0332 0.83235 5.6544 1.1898 11.273 1.2129 16.82-7.6158-8.9572-14.75-15.826-16.115-36.287-1.7729 16.13 9.1678 29.266 16.131 37.449-0.0106 3.2934-0.20538 6.4757-0.375 9.6973-3.0694-2.8105-6.2448-5.543-8.6738-9.1641-2.661-3.9668-4.4454-8.9932-4.2109-16.414-0.82652 5.9442 0.91802 12.765 3.5957 16.826 2.6232 3.9105 6.0486 6.7734 9.2402 9.7168-0.12829 2.2809-0.1813 4.6142-0.34766 6.8476-2.3684-4.2324-4.8163-5.4883-7.2168-7.7656-2.5287-2.3989-5.136-6.1078-7.8887-16.242 0.15572 5.8707 3.5852 13.139 7.3809 16.779 2.6224 2.4879 5.0347 3.5025 7.4473 8.1777-0.35442 1.0235-0.94939 2.1766-1.0434 3.0599-0.0612 0.57509 0.09 1.0358 0.65828 1.2718 1.7204 1.0959 1.8228-3.5647 1.2288-4.4313 0.89049 0.81347 0.61153 0.76971 0.13686-0.10328 9.5968-6.6561 15.905-15.161 16.037-29.02-1.3477 14.014-8.9486 23.67-15.988 28.062 0.14427-1.949 0.18658-3.9923 0.30273-5.9805l0.14453 0.13476c2.1462-6.2584 7.0614-10.957 10.008-15.545 4.5811-7.8839 5.538-13.944 1.0898-20.857 3.813 8.7065 1.7304 14.996-1.7148 20.463-3.2116 5.0958-7.552 9.4161-9.4414 14.135 0.15258-2.9155 0.35722-5.7759 0.38281-8.7559l0.0703 0.0859 0.26953-0.44336c2.6626-4.4063 5.1039-7.2659 6.2129-11.332 1.512-3.583 1.1927-10.626-2.502-18.09 2.6214 8.9738 2.8463 14.011 1.7871 17.895-1.0191 3.7364-3.2874 6.535-5.8535 10.705 8e-3 -5.5728-0.30234-11.229-1.0898-16.928 0.0183 4.9e-4 0.0359 0.0159 0.0527 0.0137 0.82615-0.59191 0.91726-1.6993 1.0703-2.4043 0.32807-1.4555 0.63048-3.5625 0.6582-6.1289 0.23546-5.6126-0.41712-13.609-5.793-18.893 4.0839 7.0317 5.107 13.86 5.0527 18.885-0.0271 2.5125-0.32487 4.5738-0.64063 5.9746-0.15788 0.70043-0.32078 1.2385-0.45117 1.5723-6e-3 0.0149-8e-3 0.0151-0.0137 0.0293-0.035-0.0416-0.072-0.0845-0.11328-0.13476-3.2286-9.6374-0.43463-17.419-11.877-31.156z" color="#000000" color-rendering="auto" dominant-baseline="auto" image-rendering="auto" solid-color="#000000" style="font-feature-settings:normal;font-variant-alternates:normal;font-variant-caps:normal;font-variant-ligatures:normal;font-variant-numeric:normal;font-variant-position:normal;isolation:auto;mix-blend-mode:normal;shape-padding:0;text-decoration-color:#000000;text-decoration-line:none;text-decoration-style:solid;text-indent:0;text-orientation:mixed;text-transform:none;white-space:normal"/>
    <path d="m373.5 244.28c-3.2921 0.0721-6.0808 1.1456-8.5586 2.7051-4.8758 3.0686-8.6088 7.9063-12.863 10.607-3.4646 0.73001-6.7158 1.6114-9.9766 2.5449 1.5604-1.3487 3.1473-3.2214 5.3906-5.5684 2.9698-3.107 7.0174-6.6147 13.336-9.2383-5.0286 0.70333-10.913 5.6479-13.871 8.7266-2.9277 3.063-4.8134 5.6296-6.5605 6.5801-2.2744 0.66688-4.5784 1.3277-6.6406 1.9414 1.4554-1.8311 2.3434-3.762 3.543-5.752 1.4833-2.4608 3.7263-5.0314 9.1816-7.6641-3.7189-0.41356-8.29 4.7598-9.8164 7.2812-1.4374 2.3847-2.217 4.5382-4.084 6.4785-0.6304 0.57334-0.9585 0.70234-0.21683 1.0332 5.0792 2.2794 6.2812 3.2559 8.2812 4.6504 4.7121 2.8829 7.5699 5.3734 13.127 6.3164-8.0287-3.795-10.722-5.5422-12.703-6.9238-1.8915-1.3189-3.3555-2.3882-7.9141-4.4726 2.1765-0.64278 4.6746-1.3631 7.0918-2.0742l0.0801 0.0176c8.7295 1.7988 13.345 4.6736 21.08 13.361 1.693 1.9016 4.3054 2.206 6.7383 1.9512 2.4898-0.44163 4.234-0.25932 5.7012-2.207-1.2036 0.439-3.4597 1.228-5.7774 1.4707s-4.643-0.062-6.1094-1.709c-7.4145-8.3278-12.28-11.426-20.359-13.279 3.3604-0.97208 6.7002-1.9108 10.275-2.6777 9.8089 7.3615 13.842 11.896 35.17 13.564-18.159-2.2254-24.72-6.1299-34.17-13.738 1.9566-0.39916 3.9212-0.77508 5.8809-1.0273 1.8396-0.2368 3.6555-0.32693 5.4629-0.38867 0.38494 0.68628 1.2011 1.2563 2.4453 1.9394 1.3581 0.74566 3.1813 1.5893 5.3496 2.6016 7.0678 2.7263 10.518 5.403 16.451 7.9141-6.0544-3.853-11.8-6.5585-16.139-8.584-2.1693-1.0127-3.9872-1.8576-5.3066-2.582-1.0264-0.56355-1.4268-0.98396-1.7637-1.3633 6.8698-0.0901 13.356 1.2955 18.594 5.4141 4.0292 3.1682 7.3435 7.951 9.543 14.957 0.14189-5.696-5.5383-12.691-9.0859-15.539-5.3485-4.2055-11.921-5.6451-18.826-5.5879 0.50947-0.38562 1.2283-0.87572 2.1524-1.4062 1.9272-1.1064 4.6318-2.3388 7.6191-2.9473 2.9873-0.60848 6.2492-0.59505 9.334 0.75586 3.0847 1.3509 6.0142 4.0396 8.334 8.8808-0.22881-4.4208-4.9769-8.1958-8.0371-9.5605-3.2589-1.4272-6.6866-1.4307-9.7793-0.80078-3.0927 0.62994-5.8593 1.8922-7.8398 3.0293-1.0229 0.66164-2.1114 1.2218-2.9531 2.0527-0.0297 0.0296-0.0489 0.0582-0.0742 0.0859-1.8479 0.0617-3.7032 0.15368-5.5742 0.39453-1.6566 0.21323-3.3103 0.54602-4.9629 0.86523 3.8971-2.8601 7.3664-7.0097 11.637-9.6973 4.7963-3.0185 10.575-4.1852 19.385 0.625-3.0636-3.1587-7.8738-4.0234-11.221-3.957z" color="#000000" color-rendering="auto" dominant-baseline="auto" image-rendering="auto" solid-color="#000000" style="font-feature-settings:normal;font-variant-alternates:normal;font-variant-caps:normal;font-variant-ligatures:normal;font-variant-numeric:normal;font-variant-position:normal;isolation:auto;mix-blend-mode:normal;shape-padding:0;text-decoration-color:#000000;text-decoration-line:none;text-decoration-style:solid;text-indent:0;text-orientation:mixed;text-transform:none;white-space:normal"/>
   </g>
  </g>
  <g transform="matrix(-1.2917 0 0 1.2915 458.8 -431.32)" stroke-width=".77424">
   <g transform="translate(-65.748 36.616)" stroke-width=".77424">
    <path d="m170.96 426.41-44.887-102.8s11.187-5.4322 10.149-4.5542c0.95044-2.916 51.402 104.72 51.402 104.72 2.9263 6.3547 8.6643 22.967 6.7306 23.66-2.6384 0.94525-5.2915-8.2867-7.8278-7.2449-6.4106 2.6331-15.568-13.781-15.568-13.781z" fill="#000000"/>
    <path d="m176.19 428.95c-2.2542-4.0293-4.4264-8.086-6.5312-12.165-15.57-30.175-27.453-61.579-41.581-92.235 0 0 5.1853-6.5012 4.3566-5.6232 0.75841-2.916 51.173 108.19 51.173 108.19 1.2048 8.3666-11.732-14.532-11.732-14.532z" fill="#c8b7b7"/>
    <path d="m162.81 397.95-33.928-75.535s3.1694-1.6904 2.1307-0.81239c0.95044-2.916 34.297 72.109 34.297 72.109 4.1742 12.63 9.5936 24.967 9.5936 24.967s-8.0465-10.977-12.093-20.73z" fill="#000000"/>
   </g>
   <g fill="#000000">
    <path d="m63.622 354.5-43.283-53.619s10.653-36.435 9.6143-35.557c0.95044-2.916 41.524 52.304 51.937 83.335 3.1138 9.2792 4.9702 29.712 2.6446 29.244-2.2707-0.45756-20.913-23.402-20.913-23.402z"/>
    <path d="m-10.717 364.04c-1.3914 0.91738-2.7341 2.3817-3.0488 3.7617 0.26265 1.659 1.4076 2.4292 1.5491 3.1866 0.10166 0.54418-0.66503 1.0317-1.0139 2.0713-0.0089 2.415-0.21476 2.8896 1.7422 4.9922-0.34531 1.041-0.46147 2.1025-0.30859 2.9942 0.24766 1.4444 2.2742 2.1626 2.6592 2.7872-0.013381-3.8036-0.37626-2.3981-0.25641-3.9628-0.30382-2.2287 1.8075-1.6463 3.3882-1.8108 1.3347-0.12855 3.0415-0.17232 4.7754-0.39844 3.0961-1.11 6.0174-2.6809 8.9902-4.084l-0.98993-2.4682-1.889-0.49068c-6.6617-2.8038-9.4273-5.6261-15.598-6.5782zm0.91797 3.5234c2.0791 0.38942 4.3758 1.231 6.4413 1.9921l-4.2499-0.57023c-0.9914 0.0809-1.9986 0.39412-2.7578 0.79701-0.31898-1.0501-0.14309-1.5422 0.56641-2.2188zm2.2109 4.7148 8.6758 0.77929-2.957 1.3711c-1.4464 0.17419-3.0077 0.22816-4.4512 0.36719-1.383 0.13319-2.697 0.31131-3.8398 1.2207-0.0047-0.69275-0.1385-1.3794 0.04492-1.9414 0.3498-1.0717 0.74857-1.6812 2.5273-1.7969z" color="#000000" color-rendering="auto" dominant-baseline="auto" image-rendering="auto" shape-rendering="auto" solid-color="#000000" style="font-feature-settings:normal;font-variant-alternates:normal;font-variant-caps:normal;font-variant-ligatures:normal;font-variant-numeric:normal;font-variant-position:normal;isolation:auto;mix-blend-mode:normal;shape-padding:0;text-decoration-color:#000000;text-decoration-line:none;text-decoration-style:solid;text-indent:0;text-orientation:mixed;text-transform:none;white-space:normal"/>
    <path d="m40.473 379.01c-9.1189 10.628-14.491 21.09-27.684 31.068-2.6137-2.3964-8.5093-3.3419-10.768-2.0039-1.7033 1.0403-4.3885 2.4208-5.2922 3.7617-0.45186 0.67046-0.7963 1.3267-1.0098 2.0039s-0.40308 1.443 0.083984 2.3613l0.20703 0.39258c2.7134 0.33689 3.3368 1.3545 5.6777 0.37667-1.4231-1.1458-3.3178-1.1687-2.2402-2.7851 0.63373-0.94032 1.6995-2.5574 2.9355-3.3123 2.1919-1.1248 3.2836-0.64186 5.2952 0.36691-2.379 0.36184-3.6627 1.6473-4.553 3.5921-0.63924 1.4278-0.93911 2.896-1.0371 4.1445-0.18674 2.4881 0.8871 3.4428 2.2804 3.6152 1.8024 0.22306 4.1394-0.86315 4.9735-1.6328 0.64373 2.3652 1.7988 4.0254 1.7988 4.0254l0.22461 0.29688 5.7358 1.5785c-0.55669-2.2023-1.7813-2.7683-3.5132-4.1254-0.21635-0.31288-0.86439-1.3018-1.2266-2.9688-0.38164-1.7565-0.59241-3.0886 1.1115-5.4886 14.465-10.6 20.449-22.597 29.488-33.132zm-31.164 34.496c0.97176 0.71179-0.5208 5.1479-0.15039 6.955 0.037053 0.17054 0.10937 0.25075 0.15234 0.41407l-3.957-0.93946c-0.020548-1.2604 0.30259-2.7098 0.76367-3.7637 0.70877-1.391 1.6756-2.5023 3.1914-2.666z" color="#000000" color-rendering="auto" dominant-baseline="auto" image-rendering="auto" shape-rendering="auto" solid-color="#000000" style="font-feature-settings:normal;font-variant-alternates:normal;font-variant-caps:normal;font-variant-ligatures:normal;font-variant-numeric:normal;font-variant-position:normal;isolation:auto;mix-blend-mode:normal;shape-padding:0;text-decoration-color:#000000;text-decoration-line:none;text-decoration-style:solid;text-indent:0;text-orientation:mixed;text-transform:none;white-space:normal"/>
   </g>
   <path d="m64.92 312.42c5.3225 15.848 6.9356 38.275-0.66885 54.934-3.9457 8.6438-17.203 13.605-21.307 18.935-3.1167 4.0476-7.7743 4.4674-10.368 4.3564-3.6396-0.15578-4.534-2.4438-2.9608-6.7534 2.1475-5.8827-6.6167-5.6548-13.394-8.0372-10.884-3.826-4.9242 1.5536-11.837-1.4609-5.2467-2.2879-1.1049-9.6385-4.8933-14.025-7.6861-8.8999-14.414-11.38-18.76-22.149-4.7564-11.785-5.2504-39.371-5.2504-39.371l14.393-9.5536c28.008-12.118 42.329-22.944 42.329-22.944s27.542 30.655 32.719 46.068z" fill="url(#linearGradient1119)"/>
   <path d="m25.63 260.38s33.451 29.934 42.569 49.769c4.4876 9.7631 3.9642 32.832 4.9488 31.853-0.40361 3.0799-47.912-62.568-47.912-62.568z" fill="#c87137"/>
   <path d="m48.081 309.09-17.892-18.873s-0.67873-24.905-1.7174-24.027c0.95604-2.915 50.114 53.886 49.371 85.168-0.14999 6.309-3.7699 18.553-3.7699 18.553l-6.7671-8.3174-1.3324 3.8962-5.3468-13.921 6.2012 4.5872-6.6486-10.369 10.491 7.7523-11.908-12.182 9.6493 5.241-13.584-13.197 7.6616 3.0639-13.478-14.131 7.7234 3.9071-13.193-14.45 6.0929 4.5634-9.2549-10.68-0.43706-0.84732z" fill="#000000"/>
   <g transform="rotate(-.42291 17894 -48368)" stroke-width=".77424">
    <path d="m-348.74 172.66c-13.798 2.2033-25.548-3.9686-32.94-6.8644-8.5603-3.3536-8.2729-16.3-5.9807-22.538 9.8953-26.926 22.818-28.001 35.949-29.481 17.552 0.26732 25.029 19.184 27.174 32.771 2.1625 13.696-8.8172 23.78-24.203 26.112z" fill="#ffffff"/>
    <g fill="#000000">
     <path d="m-377 164.23c-1.4744 2.2783-16.903 0.9234-16.903 0.9234s3.8367-4.1895 5.311-6.4678c1.4744-2.2783 4.5875-2.8841 6.9535-1.353 2.366 1.5311 6.1125 4.6192 4.6382 6.8975z"/>
     <path d="m-324.89 139.71c4.5981 8.5566 5.5675 26.867 4.5178 25.817-3.3709-1.8321-18.579-8.7685-18.579-8.7685l7.4266-2.906-7.5405-0.50061 9.018-4.0992-7.87-1.4596 5.6158-6.1788s-11.44 4.2604-12.843 4.7127c-6.7941 2.19-14.135 3.1163-22.36 7.3992-4.573 2.3811-8.4089 6.0816-11.274 7.2184-4.4091 1.7498-2.7153-2.6897-2.7153-2.6897-0.43404 0.86808 4.6952-8.832 9.1452-14.67 3.183-4.1756 7.4972-9.3473 7.4972-9.3473l-0.17326 2.3225 8.7763-6.9441-2.7383 3.5903 13.664-6.1398-0.41463 1.8523 10.211-2.6717-1.1397 1.455 6.3551-0.88661c-0.51516 0.33804 3.8368 9.9457 5.421 12.894z"/>
     <path d="m-375.66 122.63s-5.0079 9.0366-8.8301 17.486c-2.125 4.6975-0.20085 13.91-1.7512 16.574-2.3861 4.0998-3.7968-0.43759-3.7968-0.43759s-1.9203-10.287 1.6264-19.244c6.7257-13.133 11.859-12.791 12.752-14.378z"/>
    </g>
    <g stroke-width=".77424">
     <path d="m-353.79 152.67c0.38636 2.7386-2.4124 6.2699-5.1694 6.4899-2.0938 0.16707-4.3563-2.1653-4.658-4.244-0.36124-2.4887 1.4397-5.9458 3.902-6.457 2.3725-0.49249 5.5868 1.8117 5.9253 4.2111z" fill="#000000"/>
     <path d="m-352.27 153.01s-4.8458-3.3025-7.4372-2.7705c-2.0161 0.41385-4.469 4.2605-4.469 4.2605-1.079-8e-3 0.39119-6.0073 3.7131-6.8349 5.847-1.4567 8.1932 5.345 8.1932 5.345z" fill="#916f6f"/>
     <path d="m-358.67 153.38c0.13583 0.91356-0.84814 2.0916-1.8174 2.165-0.73613 0.0557-1.5315-0.72232-1.6376-1.4158-0.12701-0.83022 0.50616-1.9835 1.3718-2.154 0.83411-0.16429 1.9642 0.60437 2.0832 1.4048z" fill="#ffffff"/>
    </g>
   </g>
  </g>
  <g transform="matrix(-1 0 0 1 898.83 777.75)">
   <path d="m724.3-536.68c-5.5145-16.355 3.9284 3.7585-8.805-40.866-5.5678-32.549-38.442-49.469-53.463-47.298-17.636 2.5485-32.475 10.313-27.423 25.238 0 0-17.726 14.308-16.34 23.842 2.2514 15.486 11.022 38.165 36.471 29.57 4.3016-1.4528 11.256-1.1619 19.829-6.4304 10.849-6.6674 36.403-2.0319 49.732 15.945z" fill="#217821"/>
   <path d="m670.29-621.05c-6.7531-0.33598-12.856 1.3397-18.033 3.9277-5.1776 2.588-9.446 6.0659-12.604 9.332-3.1576 3.2662-5.1948 6.2668-5.9531 8.1582l-0.11329 0.2793 0.10157 0.28516c2.6668 7.4163 3.4994 16.716 6.7852 25.447 4.5419 10.722 11.303 18.824 22.27 20.334-12.159-4.7619-17.599-12.43-20.783-20.893-3.0176-8.0189-3.9603-16.708-6.4043-24.16 4.8941 0.61384 9.5242 1.3133 14.008 2.1074l6e-3 0.0195c2.0612 7.1407 2.0284 12.908 5.8535 19.117 7.0158 9.0636 16.694 17.148 29.242 19.979-16.994-8.6727-24.301-14.983-27.891-20.811-3.4405-5.5845-3.6179-10.99-5.4902-17.898 0.0402-7e-3 0.0809-0.0186 0.12109-0.0254 9.9767 1.8738 19.075 4.5306 27.65 8.748 0.0737 1.2085 0.32296 2.5288 0.54292 3.5137 0.57458 2.5471 1.6699 6.057 3.6445 9.9434 4.5397 8.6558 13.413 19.952 25.893 21.52-13.464-5.776-20.665-14.732-24.479-22.238-1.7975-3.8898-3.4205-7.8898-3.9219-11.982 13.997 7.2842 26.78 19.065 40.23 39.51-8.8789-16.649-19.601-30.788-39.037-40.633 3.0801-0.1984 6.5838 0.5232 9 1.2793 6.6524 2.1245 15.514 7.2305 24.107 18.777-5.8342-9.1791-14.826-17.441-23.625-20.289-3.4833-1.1124-6.4143-1.4514-8.4922-1.4434-1.1456 0.0634-2.4481 0.0229-3.3809 0.59571-7.6352-3.7368-15.688-6.2734-24.32-8.1094 7.7466-1.8195 15.594-4.8087 23.668-5.2285 9.734-0.50617 19.819 2.6719 30.801 16.643-4.8235-12.223-20.843-18.667-30.883-18.229-9.7207 0.50547-18.82 4.5052-27.443 6.0098-5.0143-0.94109-10.172-1.7705-15.666-2.459 0.83683-1.6211 2.4685-4.0421 5.0996-6.7637 3.0515-3.1565 7.1914-6.5261 12.172-9.0156 9.961-4.979 23.213-6.5286 38.346 4.0957-5.135-6.2933-14.868-9.1048-21.021-9.4434zm-34.643 21.207-0.16015 1.2715c-0.0725-0.21744-0.12196-0.45475-0.19727-0.66992 0.0643-0.14907 0.26914-0.4276 0.35742-0.60156zm-14.27 17.357c-0.52406 2.2033-0.87931 5.1112-0.27734 8.6445 2.6419 10.046 6.5705 17.352 21.93 26.992-14.539-11.52-19.244-20.679-20.365-27.26-0.56059-3.2905-0.23144-5.9528 0.25781-8.0098 0.47173-2.3484 1.6302-4.487 1.9377-6.9074-2.2257 1.6399-2.9325 4.254-3.4826 6.5402z" color="#000000" color-rendering="auto" dominant-baseline="auto" fill="#88aa00" image-rendering="auto" shape-rendering="auto" solid-color="#000000" style="font-feature-settings:normal;font-variant-alternates:normal;font-variant-caps:normal;font-variant-ligatures:normal;font-variant-numeric:normal;font-variant-position:normal;isolation:auto;mix-blend-mode:normal;shape-padding:0;text-decoration-color:#000000;text-decoration-line:none;text-decoration-style:solid;text-indent:0;text-orientation:mixed;text-transform:none;white-space:normal"/>
  </g>
  <path d="m762.26 112c-5.6018 0.91053-10.65-1.784-18.428-3.8814 0.68442-3.0754 2.1394-4.9624 2.1394-4.9624 5.4913-1.4521 9.0932-3.2493 12.831-0.74676 4.365 2.7925 7.5371 5.6308 6.1359 8.5978-2.6227-0.16163-1.678 1.8868-8.4095 1.4225z" fill="#f6ffd5" stroke="#ffd5d5" stroke-width=".79375"/>
  <g transform="matrix(1.2069 -.26519 .27602 1.2552 900.98 168.06)" stroke-width=".79352">
   <path d="m-115.08-65.214c-2.4341 0.86327-4.3792 2.803-4.3792 2.803-1.8096 8.8603 0.62177 7.5349 3.4345 11.237 0.54866 0.0547 1.6113 2.8135 1.235 2.3717 0.47308-1.1807 1.4364-1.717 2.2981-2.4339 6.5383-5.4396 0.96418-14.342-2.5884-13.977z" fill="#f6ffd5" stroke="#ffd5d5" stroke-width=".62986"/>
   <path d="m-115.44-65.913c-0.13133-1.7468-1.2217-5.503-3.6135-3.4808l1.3916-1.3313c-1.2914-0.42405 3.0162-4.0753 3.8979 4.6713l2.8854 2.6467c-1.1589 0.67522-1.9253-0.21964-2.742-0.91332 0.0115-0.01727 0.54077 1.7432-0.97995 2.1697-0.88787 0.24901-1.3746-1.344-1.3746-1.344-0.81353 1.1262-0.82191 0.03649-2.327-0.04748z" fill="#e9afaf"/>
  </g>
  <g stroke-width=".7587">
   <g transform="matrix(1.3518 0 0 1.2852 853.56 225.74)">
    <path d="m-110.07-46.672c0.94321-0.10929-0.19824-0.77223-0.94808-2.2409 0.41503-4.0243 5.5522-13.606-4.0688-16.302-2.4341 0.86327-4.3792 2.803-4.3792 2.803-2.8442 1.4781-1.4436 9.0916-0.12253 13.125 0.34855 1.0643-2.1241 1.62-1.8896 1.9428 0.21671 0.24805 1.407-0.04474 1.8073 0.07549 0.4003 0.12023-0.0562 1.3551 0.47483 1.3843 0.53108 0.02922 0.97057-1.1561 1.6232-1.1053 0.61205 0.04762 0.72984 1.2477 1.3436 1.2596 0.76808 0.01479 0.97643-1.5865 1.7409-1.5103 0.54866 0.0547 0.45948 1.3054 1.0108 1.3093 0.65597 0.0047 0.83194-1.6667 1.2249-1.5403-0.23609 0.45044-0.15559 1.6403 2.1826 0.79862z" fill="#f6ffd5" stroke="#ffd5d5" stroke-width=".60221"/>
    <path d="m-115.44-65.913c-0.0332 0.08305 1.8111-6.6054-0.92448-8.345l0.28359-1.9645c1.6201 2.5352 3.2008 6.9022 2.3168 10.169l2.8854 2.6467c-1.1589 0.67522-1.9253-0.21964-2.742-0.91332 0.0115-0.01727 0.54077 1.7432-0.97995 2.1697-0.88787 0.24901-1.3746-1.344-1.3746-1.344-0.81353 1.1262-0.82191 0.03649-2.327-0.04748z" fill="#e9afaf"/>
   </g>
   <g transform="matrix(1.3518 0 0 1.2852 832.92 235.48)">
    <path d="m-110.07-46.672c0.94321-0.10929-0.19824-0.77223-0.94808-2.2409 0.41503-4.0243 5.5522-13.606-4.0688-16.302-2.4341 0.86327-4.3792 2.803-4.3792 2.803-2.8442 1.4781-1.4436 9.0916-0.12253 13.125 0.34855 1.0643-2.1241 1.62-1.8896 1.9428 0.21671 0.24805 1.407-0.04474 1.8073 0.07549 0.4003 0.12023-0.0562 1.3551 0.47483 1.3843 0.53108 0.02922 0.97057-1.1561 1.6232-1.1053 0.61205 0.04762 0.72984 1.2477 1.3436 1.2596 0.76808 0.01479 0.97643-1.5865 1.7409-1.5103 0.54866 0.0547 0.45948 1.3054 1.0108 1.3093 0.65597 0.0047 0.83194-1.6667 1.2249-1.5403-0.23609 0.45044-0.15559 1.6403 2.1826 0.79862z" fill="#f6ffd5" stroke="#ffd5d5" stroke-width=".60221"/>
    <path d="m-115.44-65.913c0.0547-0.42358 2.0293-7.479-1.587-7.2027-0.16016-0.51398-0.0378-0.98552 0.78708-1.3515 0.89927 0.49529 3.1489 1.5364 2.4758 8.4135l2.8854 2.6467c-1.1589 0.67522-1.9253-0.21964-2.742-0.91332 0.0115-0.01727 0.54077 1.7432-0.97995 2.1697-0.88787 0.24901-1.3746-1.344-1.3746-1.344-0.81353 1.1262-0.82191 0.03649-2.327-0.04748z" fill="#e9afaf"/>
   </g>
   <g transform="matrix(-1.3518 0 0 1.2852 499.26 240.7)">
    <path d="m-110.07-46.672c0.94321-0.10929-0.19824-0.77223-0.94808-2.2409 0.41503-4.0243 5.5522-13.606-4.0688-16.302-2.4341 0.86327-4.3792 2.803-4.3792 2.803-2.8442 1.4781-1.4436 9.0916-0.12253 13.125 0.34855 1.0643-2.1241 1.62-1.8896 1.9428 0.21671 0.24805 1.407-0.04474 1.8073 0.07549 0.4003 0.12023-0.0562 1.3551 0.47483 1.3843 0.53108 0.02922 0.97057-1.1561 1.6232-1.1053 0.61205 0.04762 0.72984 1.2477 1.3436 1.2596 0.76808 0.01479 0.97643-1.5865 1.7409-1.5103 0.54866 0.0547 0.45948 1.3054 1.0108 1.3093 0.65597 0.0047 0.83194-1.6667 1.2249-1.5403-0.23609 0.45044-0.15559 1.6403 2.1826 0.79862z" fill="#f6ffd5" stroke="#ffd5d5" stroke-width=".60221"/>
    <path d="m-115.44-65.913c0.23882 0.53462 0.34316-6.9636 6.7073-5.7818l0.38959 0.71021c-3.9867-0.32697-4.4474 2.425-6.057 4.8751l3.5214 2.7025c-1.1589 0.67522-1.9253-0.21964-2.742-0.91332 0.0115-0.01727 0.54077 1.7432-0.97995 2.1697-0.88787 0.24901-1.3746-1.344-1.3746-1.344-0.81353 1.1262-0.82191 0.03649-2.327-0.04748z" fill="#e9afaf"/>
   </g>
  </g>
  <path d="m478.98 215.87c-16.3 10.253-32.418 22.28-46.089 27.595l5.2659-36.71-4.3296-1.9544-8.5906 41.912c-9.5027 3.2513-57.786 49.139-63.503 50.293h16.961c7.6102-1.536 43.708-41.128 56.877-46.099 34.475-16.115 66.065-47.231 82.765-50.863 5.3677-1.1673 155.15-54.453 214.7-83.837 7.616-3.7583 10.044-3.7951 13.922-6.5354 1.4562-1.4928-1.0123-2.2914-0.033-3.1944 3.4492-3.1806 6.1715-13.118 4.4485-15.622-0.74717 1.7536-6.0902 12.76-10.749 16.1-2.9673 2.1273-6.3545 4.282-9.6858 6.0892-52.677 28.576-218.13 81.105-223.93 82.212z" color="#000000" color-rendering="auto" dominant-baseline="auto" fill="#89a02c" image-rendering="auto" shape-rendering="auto" solid-color="#000000" style="font-feature-settings:normal;font-variant-alternates:normal;font-variant-caps:normal;font-variant-ligatures:normal;font-variant-numeric:normal;font-variant-position:normal;isolation:auto;mix-blend-mode:normal;shape-padding:0;text-decoration-color:#000000;text-decoration-line:none;text-decoration-style:solid;text-indent:0;text-orientation:mixed;text-transform:none;white-space:normal"/>
  <g transform="matrix(1.2357 0 0 1.2852 810.04 238.05)" stroke-width=".79352">
   <path d="m-110.07-46.672c0.94321-0.10929-0.19824-0.77223-0.94808-2.2409 0.41503-4.0243 5.5522-13.606-4.0688-16.302-2.4341 0.86327-4.3792 2.803-4.3792 2.803-2.8442 1.4781-1.4436 9.0916-0.12253 13.125 0.34855 1.0643-2.1241 1.62-1.8896 1.9428 0.21671 0.24805 1.407-0.04474 1.8073 0.07549 0.4003 0.12023-0.0562 1.3551 0.47483 1.3843 0.53108 0.02922 0.97057-1.1561 1.6232-1.1053 0.61205 0.04762 0.72984 1.2477 1.3436 1.2596 0.76808 0.01479 0.97643-1.5865 1.7409-1.5103 0.54866 0.0547 0.45948 1.3054 1.0108 1.3093 0.65597 0.0047 0.83194-1.6667 1.2249-1.5403-0.23609 0.45044-0.15559 1.6403 2.1826 0.79862z" fill="#f6ffd5" stroke="#ffd5d5" stroke-width=".62986"/>
   <path d="m-115.44-65.913c-2.085-9.6011 6.7217-10.697 5.9089-10.785l-0.65163 1.5101c-4.1142 1.3347-4.4448 5.8266-3.9581 9.3011l3.2622 2.4796c-1.1589 0.67522-1.9253-0.21964-2.742-0.91332 0.0115-0.01727 0.54077 1.7432-0.97995 2.1697-0.88787 0.24901-1.3746-1.344-1.3746-1.344-0.81353 1.1262-0.82191 0.03649-2.327-0.04748z" fill="#e9afaf"/>
  </g>
  <g transform="matrix(-1.2357 0 0 1.2852 551.33 224.62)" stroke-width=".79352">
   <path d="m-110.07-46.672c0.94321-0.10929-0.19824-0.77223-0.94808-2.2409 0.41503-4.0243 5.5522-13.606-4.0688-16.302-2.4341 0.86327-4.3792 2.803-4.3792 2.803-2.8442 1.4781-1.4436 9.0916-0.12253 13.125 0.34855 1.0643-2.1241 1.62-1.8896 1.9428 0.21671 0.24805 1.407-0.04474 1.8073 0.07549 0.4003 0.12023-0.0562 1.3551 0.47483 1.3843 0.53108 0.02922 0.97057-1.1561 1.6232-1.1053 0.61205 0.04762 0.72984 1.2477 1.3436 1.2596 0.76808 0.01479 0.97643-1.5865 1.7409-1.5103 0.54866 0.0547 0.45948 1.3054 1.0108 1.3093 0.65597 0.0047 0.83194-1.6667 1.2249-1.5403-0.23609 0.45044-0.15559 1.6403 2.1826 0.79862z" fill="#f6ffd5" stroke="#ffd5d5" stroke-width=".62986"/>
   <path d="m-115.44-65.913c-0.0332 0.08305 1.7686-7.0267-2.4634-7.9549l0.62796-1.0172c1.775 0.46505 3.109 0.50679 3.5114 8.8314l2.8854 2.6467c-1.1589 0.67522-1.9253-0.21964-2.742-0.91332 0.0115-0.01727 0.54077 1.7432-0.97995 2.1697-0.88787 0.24901-1.3746-1.344-1.3746-1.344-0.81353 1.1262-0.82191 0.03649-2.327-0.04748z" fill="#e9afaf"/>
  </g>
  <g transform="matrix(1.3518 0 0 1.2852 882.77 211.1)" stroke-width=".7587">
   <path d="m-110.07-46.672c0.94321-0.10929-0.19824-0.77223-0.94808-2.2409 0.41503-4.0243 5.5522-13.606-4.0688-16.302-2.4341 0.86327-4.3792 2.803-4.3792 2.803-2.8442 1.4781-1.4436 9.0916-0.12253 13.125 0.34855 1.0643-2.1241 1.62-1.8896 1.9428 0.21671 0.24805 1.407-0.04474 1.8073 0.07549 0.4003 0.12023-0.0562 1.3551 0.47483 1.3843 0.53108 0.02922 0.97057-1.1561 1.6232-1.1053 0.61205 0.04762 0.72984 1.2477 1.3436 1.2596 0.76808 0.01479 0.97643-1.5865 1.7409-1.5103 0.54866 0.0547 0.45948 1.3054 1.0108 1.3093 0.65597 0.0047 0.83194-1.6667 1.2249-1.5403-0.23609 0.45044-0.15559 1.6403 2.1826 0.79862z" fill="#f6ffd5" stroke="#ffd5d5" stroke-width=".60221"/>
   <path d="m-115.44-65.913c0.51663-1.1356 2.0728-6.1362-3.7181-5.651l0.35634-0.65138c4.5008-0.51114 5.2636 2.5878 5.0377 6.1616l2.8854 2.6467c-1.1589 0.67522-1.9253-0.21964-2.742-0.91332 0.0115-0.01727 0.54077 1.7432-0.97995 2.1697-0.88787 0.24901-1.3746-1.344-1.3746-1.344-0.81353 1.1262-0.82191 0.03649-2.327-0.04748z" fill="#e9afaf"/>
  </g>
  <g transform="matrix(-1.248 0 0 1.2541 574.06 213.52)" stroke-width=".79932">
   <path d="m-110.07-46.672c0.94321-0.10929-0.19824-0.77223-0.94808-2.2409 0.41503-4.0243 5.5522-13.606-4.0688-16.302-2.4341 0.86327-4.3792 2.803-4.3792 2.803-2.8442 1.4781-1.4436 9.0916-0.12253 13.125 0.34855 1.0643-2.1241 1.62-1.8896 1.9428 0.21671 0.24805 1.407-0.04474 1.8073 0.07549 0.4003 0.12023-0.0562 1.3551 0.47483 1.3843 0.53108 0.02922 0.97057-1.1561 1.6232-1.1053 0.61205 0.04762 0.72984 1.2477 1.3436 1.2596 0.76808 0.01479 0.97643-1.5865 1.7409-1.5103 0.54866 0.0547 0.45948 1.3054 1.0108 1.3093 0.65597 0.0047 0.83194-1.6667 1.2249-1.5403-0.23609 0.45044-0.15559 1.6403 2.1826 0.79862z" fill="#f6ffd5" stroke="#ffd5d5" stroke-width=".63446"/>
   <path d="m-115.44-65.913c-0.0332 0.08305 1.957-7.2409-2.2842-9.5596l0.0537-0.79106c4.6401 2.9495 3.0913 6.847 3.9064 10.21l2.8854 2.6467c-1.1589 0.67522-1.9253-0.21964-2.742-0.91332 0.0115-0.01727 0.54077 1.7432-0.97995 2.1697-0.88787 0.24901-1.3746-1.344-1.3746-1.344-0.81353 1.1262-0.82191 0.03649-2.327-0.04748z" fill="#e9afaf"/>
  </g>
  <g transform="matrix(-1.2357 0 0 1.2852 500.7 246.54)" stroke-width=".79352">
   <path d="m-110.07-46.672c0.94321-0.10929-0.19824-0.77223-0.94808-2.2409 0.41503-4.0243 5.5522-13.606-4.0688-16.302-2.4341 0.86327-4.3792 2.803-4.3792 2.803-1.9626 2.7022-1.4283 9.1128-0.12253 13.125 0.34655 1.0649-2.1241 1.62-1.8896 1.9428 0.21671 0.24805 1.407-0.04474 1.8073 0.07549 0.4003 0.12023-0.0562 1.3551 0.47483 1.3843 0.53108 0.02922 0.97057-1.1561 1.6232-1.1053 0.61205 0.04762 0.72984 1.2477 1.3436 1.2596 0.76808 0.01479 0.97643-1.5865 1.7409-1.5103 0.54866 0.0547 0.45948 1.3054 1.0108 1.3093 0.65597 0.0047 0.83194-1.6667 1.2249-1.5403-0.23609 0.45044-0.15559 1.6403 2.1826 0.79862z" fill="#f6ffd5" stroke="#ffd5d5" stroke-width=".62986"/>
   <path d="m-115.44-65.913c-0.0236 0.06213 2.4121-9.2511-3.4976-9.7218-0.45352-0.08798-0.74754-0.19148-0.91784-0.2994-0.65655-0.41605 0.52593-0.89775 1.4978-0.80897 6.3764 2.5067 4.0776 6.6336 4.5936 10.689l2.8854 2.6467c-1.1589 0.67522-1.9253-0.21964-2.742-0.91332 0.0115-0.01727 0.54077 1.7432-0.97995 2.1697-0.88787 0.24901-1.3746-1.344-1.3746-1.344-0.81353 1.1262-0.82191 0.03649-2.327-0.04748z" fill="#e9afaf"/>
  </g>
  <path d="m637.47 4.3304c-6.1678 12.19-14.512 17.914-21.638 22.018-13.2 7.602-13.288 9.3862-17.62 25.609 0.1396 16.724-11.928 16.682-15.431 21.07-19.559 24.496-16.757 47.975-3.8109 56.636 11.426 7.6429 13.395 19.633 11.785 29.561-1.3333 8.2233-1.623 7.9724-4.5268 9.7238-4.0571 2.9003 8.965-3.1963 10.616-4.9503 0 0 4.9923-0.74197 6.0568-1.3129 10.539-5.6523 21.264-9.1432 26.418-21.948 3.9808-9.8908 7.1628-21.953 12.431-32.171 3.9639-7.6883 13.051-13.1 14.293-21.66 0.76269-5.2547-4.1201-9.9563-4.6324-15.241-0.79094-8.1588 3.5792-16.338 2.4987-24.464-2.0173-15.17-23.601-29.602-16.439-42.87z" fill="#5aa02c"/>
  <path d="m632.91 16.291c5.0117 29.936 1.606 60.013-5.558 83.403-0.42509-1.5223-0.93003-3.3924-1.5371-5.8697-1.3718-5.5982-3.0568-13.286-4.3851-21.499-1.3283-8.2129-2.3005-16.956-2.2491-24.647 0.0515-7.6912 1.1654-14.324 3.7778-18.254-4.51 6.131-5.3083 12.881-5.3652 18.246-0.0523 7.8322 0.92869 16.643 2.2658 24.911 1.3372 8.2677 3.0342 15.988 4.4144 21.62 0.72519 2.8026 1.3834 5.6216 2.2282 8.2729-2.6065 7.9998-5.8783 15.456-9.4655 22.617-7.1669-24.982-21.741-47.493-5.5829-88.771-19.194 39.894-2.6183 66.039 4.5652 90.772-3.6249 6.9987-7.5456 13.678-11.882 19.828-7.7784-18.044-20.511-50.239-5.4238-78.383-16.835 24.044-4.874 57.535 4.3474 80.041-2.9289 4.0557-6.0265 7.8506-9.1807 11.518 1.6827-9.279-1.1797-16.599-4.5945-23.868-3.6315-7.7302-7.685-15.54-7.3797-26.313 0.17456-6.1623 1.7766-13.317 5.7631-22.001-4.5289 5.7075-7.145 16.196-7.3504 21.955-0.31715 11.193 3.9177 19.343 7.5305 27.034 3.6127 7.6902 6.614 14.868 4.2846 24.538l-7.4054 8.5907c0.7173 2.0412 10.492-8.0564 10.492-8.0564s25.566-9.04 30.289-16.414c-10.111 6.6039-20.32 11.083-29.113 13.925 2.8551-3.4 5.6751-6.8618 8.3388-10.584 2.7057-2.4643 6.9403-3.2388 12.041-5.5432 8.8553-5.8648 12.662-8.1979 15.501-16.969-5.4941 9.4132-11.119 13.248-16.158 15.524-3.5894 1.6215-6.7332 2.6636-9.5157 4.1113 3.616-5.2671 6.9494-10.87 10.06-16.738l0.0129 0.0418c9.5961-7.0164 19.634-13.909 24.778-22.056 5.432-13.711 9.5459-26.536 6.1693-44.927 1.2828 21.574-3.4399 33.857-7.5221 44.098-5.3899 8.815-13.232 14.223-21.959 19.954 3.6095-7.137 6.8772-14.594 9.5241-22.562 4.3756-2.5406 8.6824-12.906 10.144-16.362 5.096-15.028 7.8839-22.962 5.273-43.232 1.5079 17.374-2.3922 32.241-6.7389 42.621-2.1905 4.8253-4.547 9.8644-7.6226 13.841 7.9999-22.867 9.4717-48.405 7.4095-67.498-0.70282-6.5069-1.8161-12.265-3.2213-16.914z" color="#000000" color-rendering="auto" dominant-baseline="auto" fill="#aad400" image-rendering="auto" shape-rendering="auto" solid-color="#000000" style="font-feature-settings:normal;font-variant-alternates:normal;font-variant-caps:normal;font-variant-ligatures:normal;font-variant-numeric:normal;font-variant-position:normal;isolation:auto;mix-blend-mode:normal;shape-padding:0;text-decoration-color:#000000;text-decoration-line:none;text-decoration-style:solid;text-indent:0;text-orientation:mixed;text-transform:none;white-space:normal"/>
  <g transform="matrix(2.1444 0 0 2.1436 238.83 -388.16)" stroke-width=".46642">
   <g transform="matrix(.63037 0 0 .59955 251.4 297.71)" stroke-width=".7587">
    <path d="m-110.07-46.672c0.94321-0.10929-0.19824-0.77223-0.94808-2.2409 0.41503-4.0243 5.5522-13.606-4.0688-16.302-2.4341 0.86327-4.3792 2.803-4.3792 2.803-2.8442 1.4781-1.4436 9.0916-0.12253 13.125 0.34855 1.0643-2.1241 1.62-1.8896 1.9428 0.21671 0.24805 1.407-0.04474 1.8073 0.07549 0.4003 0.12023-0.0562 1.3551 0.47483 1.3843 0.53108 0.02922 0.97057-1.1561 1.6232-1.1053 0.61205 0.04762 0.72984 1.2477 1.3436 1.2596 0.76808 0.01479 0.97643-1.5865 1.7409-1.5103 0.54866 0.0547 0.45948 1.3054 1.0108 1.3093 0.65597 0.0047 0.83194-1.6667 1.2249-1.5403-0.23609 0.45044-0.15559 1.6403 2.1826 0.79862z" fill="#f6ffd5" stroke="#ffd5d5" stroke-width=".60221"/>
    <path d="m-115.44-65.913c0.0547-0.42358 2.0293-7.479-1.587-7.2027-0.16016-0.51398-0.0378-0.98552 0.78708-1.3515 0.89927 0.49529 3.1489 1.5364 2.4758 8.4135l2.8854 2.6467c-1.1589 0.67522-1.9253-0.21964-2.742-0.91332 0.0115-0.01727 0.54077 1.7432-0.97995 2.1697-0.88787 0.24901-1.3746-1.344-1.3746-1.344-0.81353 1.1262-0.82191 0.03649-2.327-0.04748z" fill="#e9afaf"/>
   </g>
   <g transform="matrix(.57626 0 0 .59955 241.14 298.98)" stroke-width=".79352">
    <path d="m-110.07-46.672c0.94321-0.10929-0.19824-0.77223-0.94808-2.2409 0.41503-4.0243 5.5522-13.606-4.0688-16.302-2.4341 0.86327-4.3792 2.803-4.3792 2.803-2.8442 1.4781-1.4436 9.0916-0.12253 13.125 0.34855 1.0643-2.1241 1.62-1.8896 1.9428 0.21671 0.24805 1.407-0.04474 1.8073 0.07549 0.4003 0.12023-0.0562 1.3551 0.47483 1.3843 0.53108 0.02922 0.97057-1.1561 1.6232-1.1053 0.61205 0.04762 0.72984 1.2477 1.3436 1.2596 0.76808 0.01479 0.97643-1.5865 1.7409-1.5103 0.54866 0.0547 0.45948 1.3054 1.0108 1.3093 0.65597 0.0047 0.83194-1.6667 1.2249-1.5403-0.23609 0.45044-0.15559 1.6403 2.1826 0.79862z" fill="#f6ffd5" stroke="#ffd5d5" stroke-width=".62986"/>
    <path d="m-115.44-65.913c-2.085-9.6011 6.7217-10.697 5.9089-10.785l-0.65163 1.5101c-4.1142 1.3347-4.4448 5.8266-3.9581 9.3011l3.2622 2.4796c-1.1589 0.67522-1.9253-0.21964-2.742-0.91332 0.0115-0.01727 0.54077 1.7432-0.97995 2.1697-0.88787 0.24901-1.3746-1.344-1.3746-1.344-0.81353 1.1262-0.82191 0.03649-2.327-0.04748z" fill="#e9afaf"/>
   </g>
   <path d="m185.85 238.82c-1.7206 7.0652-3.2187 7.6741-4.7724 9.9003l-5.6885 7.094 3.1599-0.59415s2.3805-0.97976 4.5459-2.9824c3.1216-1.6008 4.9575-12.863 2.7551-13.418z" fill="#89a02c"/>
  </g>
  <path d="m752.59 106.78c-7.646 5.212-9.7587 4.4221-13.257 5.1357l-11.943 1.5971 0.78444 2.1661c4.6439-2.8105 8.1793-0.86473 12.154-0.80201 4.6746 1.3267 14.18-5.5416 12.263-8.0969z" fill="#89a02c"/>
  <path d="m728.3 103.86c-3.8413 8.4165-6.0579 8.8343-8.6814 11.256l-9.39 7.5483 1.7931 1.447c2.4862-3.8294 18.229-4.6163 22.304-16.86 2.1438-0.58767-8.7746 6.7171-7.3887 3.9784 1.6437-3.2481 2.9708-6.7221 1.3629-7.3697z" fill="#89a02c"/>
  <g>
   <path d="m657.07 286.8-14.862-51.733c-11.643-28.589-28.935-41.04-54.547-46.246-0.12781-0.72672-20.908-1.7346-44.364 6.0694 7.87 8.4678 13.001 46.763 44.954 56.366 48.463 14.564 62.537 24.581 68.819 35.545z" fill="#5aa02c"/>
   <path d="m586.96 190.74c-13.404-0.35049-26.334 0.0707-37.925 2.847 5.1658 5.5396 8.1694 11.66 8.6194 18.095 1.5766 8.4674 2.3035 15.936 7.4467 20.042-5.5217-9.3384-5.5101-14.834-5.8636-20.146-0.32895-4.944-1.2377-9.8168-6.9651-16.6 4.9856 1.8384 9.6239 3.8694 14.215 5.9367 0.9576 9.0104-0.20865 16.386 1.3905 23.718 2.367 6.8277 8.8057 21.658 19.458 23.778-13.216-8.9234-16.329-16.896-17.905-24.117-1.4628-6.7056-0.51226-13.903-1.3277-22.7 6.6842 3.0828 13.063 6.5496 19.17 10.4 3.2765 12.82 3.2441 20.937 5.3484 27.435 2.8703 7.2525 5.1934 12.129 18.914 15.348-11.558-5.4758-15.415-9.6962-17.402-15.834-1.8928-5.8452-2.1398-13.9-5.0427-25.911 6.7017 4.3527 13.217 9.1763 19.63 14.884-0.0216 0.0172-0.0498 0.0375-0.0669 0.0544-0.15697 0.15349-0.18142 0.24879-0.20951 0.32238-0.25372 1.2912-0.0875 2.7564 0.0214 3.8392 0.85561 14.293 10.081 26.165 18.379 29.632-8.6772-4.5031-12.799-14.645-14.97-21.275-1.0856-3.3151-1.6088-6.3451-1.8303-8.5158-0.11087-1.0853-0.14496-1.959-0.13832-2.5288 2e-3 -0.15455 0.0107-0.21727 0.0172-0.32237 5.4981 4.9802 10.969 10.409 16.548 16.68 8.2412 9.2638 16.708 20.079 25.791 32.845-6.7811-12.67-17.363-25.727-24.602-33.9-11.93-13.41-23.447-23.605-35.709-31.831 9.488 0.77936 18.296 1.851 26.604 6.5689 9.4994 5.3948 18.63 15.424 27.948 34.938-3.9455-14.81-16.091-29.909-27.165-36.32-9.6963-5.5067-19.814-6.3516-30.742-7.1634-6.012-3.8211-11.585-6.8835-18.133-9.9528 1.846 0.11982 2.9063-0.1029 5.4006-0.35074 3.6356-0.36117 7.8965-0.92762 12.481-1.21 9.1691-0.56468 19.608 6e-3 28.895 5.5348-6.9999-7.2996-21.262-7.5837-28.995-7.1216-4.6541 0.28662-8.9414 0.8571-12.535 1.2142-3.594 0.35706-6.5133 0.4714-8.2634-0.0172-4.4799-0.86118-8.5882-3.0994-12.845-4.798 12.75-3.7982 21.67-0.59371 32.358-3.4955z" color="#000000" color-rendering="auto" dominant-baseline="auto" fill="#aad400" image-rendering="auto" shape-rendering="auto" solid-color="#000000" style="font-feature-settings:normal;font-variant-alternates:normal;font-variant-caps:normal;font-variant-ligatures:normal;font-variant-numeric:normal;font-variant-position:normal;isolation:auto;mix-blend-mode:normal;shape-padding:0;text-decoration-color:#000000;text-decoration-line:none;text-decoration-style:solid;text-indent:0;text-orientation:mixed;text-transform:none;white-space:normal"/>
  </g>
  <g transform="matrix(1.5063 1.5257 -1.5263 1.5057 1182.2 223.48)" stroke-width=".46642">
   <path d="m-252.88 240.19c-0.50098 0.25899-1.1861-8.5626-1.7958-8.6095l-2.4242-5.4117c-0.59913-4.8726-2.2997-10.678-0.74309-14.477 3.226-7.8743 11.711-11.534 11.786-11.266l8.1339-6.6847c5.2979-8.1666 10.501 1.3264-10.338 33.092-1.2356 1.8835-2.6253 3.2669-3.1981 4.3502-1.3305 2.5167 1.2793 7.6115-1.4208 9.0074z" fill="#89a02c"/>
   <path d="m-241.43 200.09c-0.53467 0.6804-1.6066 2.51-2.959 5.0293-1.0024 1.8674-2.167 4.2808-3.2969 6.6348-0.61457-0.16581-1.0126-0.8493-1.291-1.3301-0.56651-0.98759-1.0815-2.3608-1.4512-3.7266-0.91759-2.9159-0.6101-3.9318-0.0694-6.3666-2.125 1.0993-1.0242 5.1411-0.64551 6.5601 0.38197 1.4111 0.90665 2.8271 1.5234 3.9024 0.41652 0.81326 0.90199 1.2668 1.6328 1.5664-0.29051 0.61234-0.56482 1.0889-0.8496 1.7109-1.2012 2.6239-2.172 5.1724-3.0352 7.5957-0.0562-0.38957-0.10362-0.78637-0.25781-1.0976-0.43512-0.8784-1.1402-1.4648-1.75-2.2227-0.60986-0.75786-1.1572-1.678-1.3633-3.2559-0.20612-1.5778-0.0547-3.8194 0.80859-7.1465-1.9345 1.8739-1.8096 5.2026-1.543 7.2422 0.22371 1.7125 0.86022 2.8013 1.5215 3.623 0.66126 0.82175 1.3148 1.3868 1.6621 2.0879 0.34726 0.70104 0.45612 1.5717-0.0449 3.1621l0.0859 0.0273c-0.76512 2.5361-1.1839 4.6548-0.71289 5.9629l0.69727-0.25c-0.31636-0.87858-7e-3 -2.8595 0.6582-5.2051l0.16797 0.43945c1.7264-0.66702 3.6722-2.63 5.6523-5.0723 2.0295-2.9966 4.3467-5.2042 4.957-8.3711-1.6131 2.5884-3.5834 5.4995-5.5332 7.9043-1.8746 2.312-3.7376 4.0859-5.1504 4.7148 1.0519-3.442 2.5607-6.9951 3.8535-9.8301 0.29438-0.64301 0.57832-1.1368 0.87891-1.7695l0.041-4e-3 0.082-0.0605s2.4083-1.7424 4.8594-3.6211c1.2255-0.93935 2.461-1.9115 3.418-2.7226 0.92932-0.82372 1.9602-1.6319 2.419-2.8564-1.2485 0.52138-1.9913 1.5222-2.8976 2.2919-0.93972 0.79661-2.1703 1.7638-3.3906 2.6992-1.9279 1.4777-3.1095 2.3306-3.8242 2.8516 0.97404-1.9965 1.9766-4.1107 2.8398-5.7188 1.345-2.5056 3.0294-5.6647 3.453-6.2037z" color="#000000" color-rendering="auto" dominant-baseline="auto" fill="#008000" image-rendering="auto" shape-rendering="auto" solid-color="#000000" style="font-feature-settings:normal;font-variant-alternates:normal;font-variant-caps:normal;font-variant-ligatures:normal;font-variant-numeric:normal;font-variant-position:normal;isolation:auto;mix-blend-mode:normal;shape-padding:0;text-decoration-color:#000000;text-decoration-line:none;text-decoration-style:solid;text-indent:0;text-orientation:mixed;text-transform:none;white-space:normal"/>
   <path d="m-246.54 197.39c2.6524-1.928 5.1937-4.4565 7.5944-6.3011 5.513-4.2358 11.451-6.6749 19.495 3.114 2.7472 3.3434 6.169 7.3256 7.1339 11.054 0.67976 2.6264 2.5898 4.2974 2.9265 4.1074-2.1448 1.3091-2.4549-0.90399-4.3128-2.0591-10.137-6.3025-14.991-0.74978-23.686-3.235-12.654-0.55239-18.389 3.2154-20.54 8.0891 0 0 2.1005-11.723 11.389-14.769z" fill="#217821"/>
   <path d="m-235.18 188.54-0.9233 0.6583c2.5062-0.15688 6.1728 0.32962 8.4487 1.0819 2.2759 0.75231 4.1252 1.8689 4.9453 3.0137-0.14206-2.1123-3.5582-3.3295-4.7129-3.7168-2.3656-0.78193-5.1399-1.201-7.7578-1.0371zm-3.2598 2.6562c6.4041 0.61183 15.936 5.5359 23.646 14.252 0.37485-2.3895-9.0445-9.1855-10.936-10.51-5.0427-2.9658-12.469-5.5715-12.711-3.7422zm1.1269 8.2696c3.0276 1.6341 4.3937 3.0879 7.3359 4.0957-1.831-1.7551-4.5915-3.1556-6.9238-4.7109-2.3324-1.5554-4.1822-3.7538-4.3688-5.9293-0.42719 2.895 1.7015 5.0338 3.9567 6.5445zm-9.0312-1.8712c-0.22615 1.9214 0.48355 3.0218 1.4258 3.6914 1.1866 0.63759 2.0262 1.0041 3.2578 1.0684-0.88806-0.76749-2.0282-1.1034-2.8281-1.6719-0.7999-0.56846-1.2814-1.667-1.0778-3.3969z" color="#000000" color-rendering="auto" dominant-baseline="auto" fill="#88aa00" image-rendering="auto" shape-rendering="auto" solid-color="#000000" style="font-feature-settings:normal;font-variant-alternates:normal;font-variant-caps:normal;font-variant-ligatures:normal;font-variant-numeric:normal;font-variant-position:normal;isolation:auto;mix-blend-mode:normal;shape-padding:0;text-decoration-color:#000000;text-decoration-line:none;text-decoration-style:solid;text-indent:0;text-orientation:mixed;text-transform:none;white-space:normal"/>
  </g>
  <g transform="translate(-247.76 797.14)">
   <g transform="matrix(-1.0667 .61859 .70457 .93655 1768 -477.28)" stroke-width=".83482">
    <path d="m724.3-536.68c-5.5145-16.355 3.9284 3.7585-8.805-40.866-5.5678-32.549-38.442-49.469-53.463-47.298-17.636 2.5485-32.475 10.313-27.423 25.238 0 0-17.726 14.308-16.34 23.842 2.2514 15.486 11.022 38.165 36.471 29.57 4.3016-1.4528 11.256-1.1619 19.829-6.4304 10.849-6.6674 36.403-2.0319 49.732 15.945z" fill="#217821"/>
    <path d="m667.75-622.24c-4.5471 0.32451-8.8156 1.7142-12.68 3.6875-10.304 5.262-17.837 14.541-20.791 18.709 2.3204 8.7608 4.1378 19.193 6.5078 26.109 4.8304 10.672 11.95 20.425 22.674 21.921-12.19-4.7739-18.332-13.859-21.43-22.375-2.9384-8.0764-3.7905-16.81-6.2246-24.254 5.152 0.54392 9.8957 1.2091 14.453 1.9824 1.9407 6.9623 1.8971 12.772 5.5078 18.98 4.406 7.8726 14.807 15.769 28.84 20.48-17-8.6755-24.202-15.141-27.695-21.146-3.3128-5.6958-3.4319-11.223-5.2363-18.037 10.058 1.8114 18.997 4.4615 27.527 9.377 5e-3 0.0651 3e-3 0.0988 0.01 0.16992 0.59272 4.4617 2.3721 9.3897 4.1484 12.932 3.8403 7.3797 11.37 17.435 25.725 21.699-13.494-5.7887-20.72-14.773-24.545-22.301-1.7757-3.7445-3.2975-7.7266-3.8438-11.504 12.395 7.5498 25.395 20.683 39.643 41.96-8.7265-17.071-26.242-35.467-39.702-43.605 0.0576-0.0171 0.0645-0.0262 0.13867-0.043 3.3269-0.49385 7.3387 0.28891 10.191 1.1816 6.6783 2.1328 15.565 7.2576 24.174 18.824-5.221-9.4681-15.381-17.344-23.77-20.086-3.2572-0.78352-8.8474-2.3295-11.637-0.95898-6.9234-3.3276-18.691-7.0763-25.611-8.5156 8.1994-1.7128 16.454-4.9493 24.984-5.2676 9.6461-0.35989 19.678 2.9944 30.682 16.992-6.6841-12.24-21.064-18.599-30.73-18.316-9.9683 0.37191-19.304 4.5964-28.273 5.9375-4.7067-0.80906-8.6111-1.722-13.913-2.281 3.1328-4.2903 9.2689-12.519 18.797-17.385 9.973-5.0928 22.346-6.2632 35.654 5.6113-5.6608-8.0992-16.968-10.899-23.576-10.48zm-46.244 39.785c-0.52119 2.1912-0.87394 5.0804-0.27539 8.5938-0.0606 5.9252 10.19 22.849 21.721 27.115-14.555-11.532-19.286-20.717-20.414-27.338-0.564-3.3106-0.23431-5.9954 0.25782-8.0644 0.79305-2.1012 0.95555-4.2174 1.1555-6.5507-1.3548 1.8951-1.9442 4.1646-2.4446 6.2441z" color="#000000" color-rendering="auto" dominant-baseline="auto" fill="#88aa00" image-rendering="auto" shape-rendering="auto" solid-color="#000000" style="font-feature-settings:normal;font-variant-alternates:normal;font-variant-caps:normal;font-variant-ligatures:normal;font-variant-numeric:normal;font-variant-position:normal;isolation:auto;mix-blend-mode:normal;shape-padding:0;text-decoration-color:#000000;text-decoration-line:none;text-decoration-style:solid;text-indent:0;text-orientation:mixed;text-transform:none;white-space:normal"/>
   </g>
  </g>
 </g>
</svg>
